<svg width="100" height="100" viewBox="0 0 100 100" fill="none" xmlns="http://www.w3.org/2000/svg">
<g clip-path="url(#clip0_1_2)">
<rect width="100" height="100" fill="white"/>
<path d="M5.06516 52C4.96516 52 4.88016 51.965 4.81016 51.895C4.74016 51.825 4.70516 51.74 4.70516 51.64V41.875C4.70516 41.765 4.74016 41.675 4.81016 41.605C4.88016 41.535 4.96516 41.5 5.06516 41.5H11.6652C11.7752 41.5 11.8652 41.535 11.9352 41.605C12.0052 41.675 12.0402 41.765 12.0402 41.875V42.865C12.0402 42.965 12.0052 43.05 11.9352 43.12C11.8652 43.19 11.7752 43.225 11.6652 43.225H6.73016V45.88H11.3352C11.4452 45.88 11.5352 45.915 11.6052 45.985C11.6752 46.045 11.7102 46.13 11.7102 46.24V47.17C11.7102 47.28 11.6752 47.37 11.6052 47.44C11.5352 47.5 11.4452 47.53 11.3352 47.53H6.73016V50.275H11.7852C11.8952 50.275 11.9852 50.31 12.0552 50.38C12.1252 50.45 12.1602 50.54 12.1602 50.65V51.64C12.1602 51.74 12.1252 51.825 12.0552 51.895C11.9852 51.965 11.8952 52 11.7852 52H5.06516ZM14.0101 48.355C13.9001 48.355 13.8101 48.32 13.7401 48.25C13.6801 48.18 13.6501 48.095 13.6501 47.995V47.005C13.6501 46.905 13.6801 46.82 13.7401 46.75C13.8101 46.68 13.9001 46.645 14.0101 46.645H18.6151C18.7151 46.645 18.8001 46.68 18.8701 46.75C18.9401 46.82 18.9751 46.905 18.9751 47.005V47.995C18.9751 48.095 18.9401 48.18 18.8701 48.25C18.8001 48.32 18.7151 48.355 18.6151 48.355H14.0101ZM24.2771 52.15C23.5571 52.15 22.9221 52.015 22.3721 51.745C21.8321 51.475 21.4071 51.085 21.0971 50.575C20.7971 50.055 20.6321 49.43 20.6021 48.7C20.5921 48.55 20.5871 48.355 20.5871 48.115C20.5871 47.865 20.5921 47.66 20.6021 47.5C20.6321 46.77 20.7971 46.15 21.0971 45.64C21.4071 45.12 21.8321 44.725 22.3721 44.455C22.9221 44.185 23.5571 44.05 24.2771 44.05C24.9171 44.05 25.4621 44.14 25.9121 44.32C26.3621 44.5 26.7321 44.725 27.0221 44.995C27.3121 45.265 27.5271 45.55 27.6671 45.85C27.8171 46.14 27.8971 46.405 27.9071 46.645C27.9171 46.755 27.8821 46.845 27.8021 46.915C27.7321 46.975 27.6471 47.005 27.5471 47.005H26.2271C26.1271 47.005 26.0471 46.98 25.9871 46.93C25.9371 46.88 25.8871 46.805 25.8371 46.705C25.6871 46.305 25.4871 46.025 25.2371 45.865C24.9971 45.695 24.6871 45.61 24.3071 45.61C23.8071 45.61 23.4071 45.77 23.1071 46.09C22.8171 46.4 22.6621 46.895 22.6421 47.575C22.6221 47.955 22.6221 48.305 22.6421 48.625C22.6621 49.315 22.8171 49.815 23.1071 50.125C23.4071 50.435 23.8071 50.59 24.3071 50.59C24.6971 50.59 25.0121 50.51 25.2521 50.35C25.4921 50.18 25.6871 49.895 25.8371 49.495C25.8871 49.395 25.9371 49.32 25.9871 49.27C26.0471 49.22 26.1271 49.195 26.2271 49.195H27.5471C27.6471 49.195 27.7321 49.23 27.8021 49.3C27.8821 49.36 27.9171 49.445 27.9071 49.555C27.8971 49.735 27.8471 49.94 27.7571 50.17C27.6771 50.39 27.5421 50.62 27.3521 50.86C27.1721 51.09 26.9421 51.305 26.6621 51.505C26.3821 51.695 26.0421 51.85 25.6421 51.97C25.2521 52.09 24.7971 52.15 24.2771 52.15ZM32.9214 52.15C32.1214 52.15 31.4464 52.01 30.8964 51.73C30.3564 51.45 29.9414 51.055 29.6514 50.545C29.3714 50.035 29.2114 49.44 29.1714 48.76C29.1614 48.58 29.1564 48.36 29.1564 48.1C29.1564 47.84 29.1614 47.62 29.1714 47.44C29.2114 46.75 29.3764 46.155 29.6664 45.655C29.9664 45.145 30.3864 44.75 30.9264 44.47C31.4764 44.19 32.1414 44.05 32.9214 44.05C33.7014 44.05 34.3614 44.19 34.9014 44.47C35.4514 44.75 35.8714 45.145 36.1614 45.655C36.4614 46.155 36.6314 46.75 36.6714 47.44C36.6814 47.62 36.6864 47.84 36.6864 48.1C36.6864 48.36 36.6814 48.58 36.6714 48.76C36.6314 49.44 36.4664 50.035 36.1764 50.545C35.8964 51.055 35.4814 51.45 34.9314 51.73C34.3914 52.01 33.7214 52.15 32.9214 52.15ZM32.9214 50.665C33.4514 50.665 33.8614 50.5 34.1514 50.17C34.4414 49.83 34.6014 49.335 34.6314 48.685C34.6414 48.535 34.6464 48.34 34.6464 48.1C34.6464 47.86 34.6414 47.665 34.6314 47.515C34.6014 46.875 34.4414 46.385 34.1514 46.045C33.8614 45.705 33.4514 45.535 32.9214 45.535C32.3914 45.535 31.9814 45.705 31.6914 46.045C31.4014 46.385 31.2414 46.875 31.2114 47.515C31.2014 47.665 31.1964 47.86 31.1964 48.1C31.1964 48.34 31.2014 48.535 31.2114 48.685C31.2414 49.335 31.4014 49.83 31.6914 50.17C31.9814 50.5 32.3914 50.665 32.9214 50.665ZM38.7084 52C38.6084 52 38.5234 51.965 38.4534 51.895C38.3834 51.825 38.3484 51.74 38.3484 51.64V44.56C38.3484 44.46 38.3834 44.375 38.4534 44.305C38.5234 44.235 38.6084 44.2 38.7084 44.2H39.8784C39.9784 44.2 40.0634 44.235 40.1334 44.305C40.2034 44.375 40.2384 44.46 40.2384 44.56V45.07C40.4484 44.79 40.7284 44.555 41.0784 44.365C41.4384 44.165 41.8634 44.06 42.3534 44.05C43.4934 44.03 44.2884 44.475 44.7384 45.385C44.9684 44.985 45.2984 44.665 45.7284 44.425C46.1684 44.175 46.6534 44.05 47.1834 44.05C47.7034 44.05 48.1734 44.17 48.5934 44.41C49.0234 44.65 49.3584 45.015 49.5984 45.505C49.8484 45.985 49.9734 46.595 49.9734 47.335V51.64C49.9734 51.74 49.9384 51.825 49.8684 51.895C49.7984 51.965 49.7134 52 49.6134 52H48.3834C48.2834 52 48.1984 51.965 48.1284 51.895C48.0584 51.825 48.0234 51.74 48.0234 51.64V47.455C48.0234 47.005 47.9584 46.65 47.8284 46.39C47.6984 46.12 47.5234 45.93 47.3034 45.82C47.0834 45.71 46.8384 45.655 46.5684 45.655C46.3484 45.655 46.1284 45.71 45.9084 45.82C45.6884 45.93 45.5084 46.12 45.3684 46.39C45.2284 46.65 45.1584 47.005 45.1584 47.455V51.64C45.1584 51.74 45.1234 51.825 45.0534 51.895C44.9834 51.965 44.8984 52 44.7984 52H43.5684C43.4584 52 43.3684 51.965 43.2984 51.895C43.2384 51.825 43.2084 51.74 43.2084 51.64V47.455C43.2084 47.005 43.1384 46.65 42.9984 46.39C42.8584 46.12 42.6784 45.93 42.4584 45.82C42.2384 45.71 42.0034 45.655 41.7534 45.655C41.5234 45.655 41.2984 45.715 41.0784 45.835C40.8584 45.945 40.6784 46.13 40.5384 46.39C40.3984 46.65 40.3284 47.005 40.3284 47.455V51.64C40.3284 51.74 40.2934 51.825 40.2234 51.895C40.1534 51.965 40.0684 52 39.9684 52H38.7084ZM52.2436 52C52.1436 52 52.0586 51.965 51.9886 51.895C51.9186 51.825 51.8836 51.74 51.8836 51.64V44.56C51.8836 44.46 51.9186 44.375 51.9886 44.305C52.0586 44.235 52.1436 44.2 52.2436 44.2H53.4136C53.5136 44.2 53.5986 44.235 53.6686 44.305C53.7386 44.375 53.7736 44.46 53.7736 44.56V45.07C53.9836 44.79 54.2636 44.555 54.6136 44.365C54.9736 44.165 55.3986 44.06 55.8886 44.05C57.0286 44.03 57.8236 44.475 58.2736 45.385C58.5036 44.985 58.8336 44.665 59.2636 44.425C59.7036 44.175 60.1886 44.05 60.7186 44.05C61.2386 44.05 61.7086 44.17 62.1286 44.41C62.5586 44.65 62.8936 45.015 63.1336 45.505C63.3836 45.985 63.5086 46.595 63.5086 47.335V51.64C63.5086 51.74 63.4736 51.825 63.4036 51.895C63.3336 51.965 63.2486 52 63.1486 52H61.9186C61.8186 52 61.7336 51.965 61.6636 51.895C61.5936 51.825 61.5586 51.74 61.5586 51.64V47.455C61.5586 47.005 61.4936 46.65 61.3636 46.39C61.2336 46.12 61.0586 45.93 60.8386 45.82C60.6186 45.71 60.3736 45.655 60.1036 45.655C59.8836 45.655 59.6636 45.71 59.4436 45.82C59.2236 45.93 59.0436 46.12 58.9036 46.39C58.7636 46.65 58.6936 47.005 58.6936 47.455V51.64C58.6936 51.74 58.6586 51.825 58.5886 51.895C58.5186 51.965 58.4336 52 58.3336 52H57.1036C56.9936 52 56.9036 51.965 56.8336 51.895C56.7736 51.825 56.7436 51.74 56.7436 51.64V47.455C56.7436 47.005 56.6736 46.65 56.5336 46.39C56.3936 46.12 56.2136 45.93 55.9936 45.82C55.7736 45.71 55.5386 45.655 55.2886 45.655C55.0586 45.655 54.8336 45.715 54.6136 45.835C54.3936 45.945 54.2136 46.13 54.0736 46.39C53.9336 46.65 53.8636 47.005 53.8636 47.455V51.64C53.8636 51.74 53.8286 51.825 53.7586 51.895C53.6886 51.965 53.6036 52 53.5036 52H52.2436ZM68.7787 52.15C67.6687 52.15 66.7887 51.83 66.1387 51.19C65.4887 50.55 65.1387 49.64 65.0887 48.46C65.0787 48.36 65.0737 48.235 65.0737 48.085C65.0737 47.925 65.0787 47.8 65.0887 47.71C65.1287 46.96 65.2987 46.31 65.5987 45.76C65.9087 45.21 66.3337 44.79 66.8737 44.5C67.4137 44.2 68.0487 44.05 68.7787 44.05C69.5887 44.05 70.2687 44.22 70.8187 44.56C71.3687 44.89 71.7837 45.355 72.0637 45.955C72.3437 46.545 72.4837 47.23 72.4837 48.01V48.325C72.4837 48.425 72.4487 48.51 72.3787 48.58C72.3087 48.65 72.2187 48.685 72.1087 48.685H67.1287C67.1287 48.685 67.1287 48.7 67.1287 48.73C67.1287 48.76 67.1287 48.785 67.1287 48.805C67.1387 49.155 67.2037 49.48 67.3237 49.78C67.4537 50.07 67.6387 50.305 67.8787 50.485C68.1287 50.665 68.4237 50.755 68.7637 50.755C69.0437 50.755 69.2787 50.715 69.4687 50.635C69.6587 50.545 69.8137 50.445 69.9337 50.335C70.0537 50.225 70.1387 50.135 70.1887 50.065C70.2787 49.945 70.3487 49.875 70.3987 49.855C70.4587 49.825 70.5437 49.81 70.6537 49.81H71.9437C72.0437 49.81 72.1237 49.84 72.1837 49.9C72.2537 49.96 72.2837 50.035 72.2737 50.125C72.2637 50.285 72.1787 50.48 72.0187 50.71C71.8687 50.94 71.6487 51.165 71.3587 51.385C71.0687 51.605 70.7037 51.79 70.2637 51.94C69.8337 52.08 69.3387 52.15 68.7787 52.15ZM67.1287 47.425H70.4437V47.38C70.4437 46.99 70.3787 46.65 70.2487 46.36C70.1187 46.07 69.9287 45.84 69.6787 45.67C69.4287 45.5 69.1287 45.415 68.7787 45.415C68.4287 45.415 68.1287 45.5 67.8787 45.67C67.6287 45.84 67.4387 46.07 67.3087 46.36C67.1887 46.65 67.1287 46.99 67.1287 47.38V47.425ZM74.4359 52C74.3359 52 74.2509 51.965 74.1809 51.895C74.1109 51.825 74.0759 51.74 74.0759 51.64V44.575C74.0759 44.465 74.1109 44.375 74.1809 44.305C74.2509 44.235 74.3359 44.2 74.4359 44.2H75.6509C75.7509 44.2 75.8359 44.235 75.9059 44.305C75.9859 44.375 76.0259 44.465 76.0259 44.575V45.19C76.2559 44.87 76.5509 44.625 76.9109 44.455C77.2809 44.285 77.7059 44.2 78.1859 44.2H78.8009C78.9109 44.2 78.9959 44.235 79.0559 44.305C79.1259 44.375 79.1609 44.46 79.1609 44.56V45.64C79.1609 45.74 79.1259 45.825 79.0559 45.895C78.9959 45.965 78.9109 46 78.8009 46H77.6309C77.1509 46 76.7759 46.135 76.5059 46.405C76.2459 46.675 76.1159 47.045 76.1159 47.515V51.64C76.1159 51.74 76.0809 51.825 76.0109 51.895C75.9409 51.965 75.8509 52 75.7409 52H74.4359ZM83.6033 52.15C82.8833 52.15 82.2483 52.015 81.6983 51.745C81.1583 51.475 80.7333 51.085 80.4233 50.575C80.1233 50.055 79.9583 49.43 79.9283 48.7C79.9183 48.55 79.9133 48.355 79.9133 48.115C79.9133 47.865 79.9183 47.66 79.9283 47.5C79.9583 46.77 80.1233 46.15 80.4233 45.64C80.7333 45.12 81.1583 44.725 81.6983 44.455C82.2483 44.185 82.8833 44.05 83.6033 44.05C84.2433 44.05 84.7883 44.14 85.2383 44.32C85.6883 44.5 86.0583 44.725 86.3483 44.995C86.6383 45.265 86.8533 45.55 86.9933 45.85C87.1433 46.14 87.2233 46.405 87.2333 46.645C87.2433 46.755 87.2083 46.845 87.1283 46.915C87.0583 46.975 86.9733 47.005 86.8733 47.005H85.5533C85.4533 47.005 85.3733 46.98 85.3133 46.93C85.2633 46.88 85.2133 46.805 85.1633 46.705C85.0133 46.305 84.8133 46.025 84.5633 45.865C84.3233 45.695 84.0133 45.61 83.6333 45.61C83.1333 45.61 82.7333 45.77 82.4333 46.09C82.1433 46.4 81.9883 46.895 81.9683 47.575C81.9483 47.955 81.9483 48.305 81.9683 48.625C81.9883 49.315 82.1433 49.815 82.4333 50.125C82.7333 50.435 83.1333 50.59 83.6333 50.59C84.0233 50.59 84.3383 50.51 84.5783 50.35C84.8183 50.18 85.0133 49.895 85.1633 49.495C85.2133 49.395 85.2633 49.32 85.3133 49.27C85.3733 49.22 85.4533 49.195 85.5533 49.195H86.8733C86.9733 49.195 87.0583 49.23 87.1283 49.3C87.2083 49.36 87.2433 49.445 87.2333 49.555C87.2233 49.735 87.1733 49.94 87.0833 50.17C87.0033 50.39 86.8683 50.62 86.6783 50.86C86.4983 51.09 86.2683 51.305 85.9883 51.505C85.7083 51.695 85.3683 51.85 84.9683 51.97C84.5783 52.09 84.1233 52.15 83.6033 52.15ZM92.1576 52.15C91.0476 52.15 90.1676 51.83 89.5176 51.19C88.8676 50.55 88.5176 49.64 88.4676 48.46C88.4576 48.36 88.4526 48.235 88.4526 48.085C88.4526 47.925 88.4576 47.8 88.4676 47.71C88.5076 46.96 88.6776 46.31 88.9776 45.76C89.2876 45.21 89.7126 44.79 90.2526 44.5C90.7926 44.2 91.4276 44.05 92.1576 44.05C92.9676 44.05 93.6476 44.22 94.1976 44.56C94.7476 44.89 95.1626 45.355 95.4426 45.955C95.7226 46.545 95.8626 47.23 95.8626 48.01V48.325C95.8626 48.425 95.8276 48.51 95.7576 48.58C95.6876 48.65 95.5976 48.685 95.4876 48.685H90.5076C90.5076 48.685 90.5076 48.7 90.5076 48.73C90.5076 48.76 90.5076 48.785 90.5076 48.805C90.5176 49.155 90.5826 49.48 90.7026 49.78C90.8326 50.07 91.0176 50.305 91.2576 50.485C91.5076 50.665 91.8026 50.755 92.1426 50.755C92.4226 50.755 92.6576 50.715 92.8476 50.635C93.0376 50.545 93.1926 50.445 93.3126 50.335C93.4326 50.225 93.5176 50.135 93.5676 50.065C93.6576 49.945 93.7276 49.875 93.7776 49.855C93.8376 49.825 93.9226 49.81 94.0326 49.81H95.3226C95.4226 49.81 95.5026 49.84 95.5626 49.9C95.6326 49.96 95.6626 50.035 95.6526 50.125C95.6426 50.285 95.5576 50.48 95.3976 50.71C95.2476 50.94 95.0276 51.165 94.7376 51.385C94.4476 51.605 94.0826 51.79 93.6426 51.94C93.2126 52.08 92.7176 52.15 92.1576 52.15ZM90.5076 47.425H93.8226V47.38C93.8226 46.99 93.7576 46.65 93.6276 46.36C93.4976 46.07 93.3076 45.84 93.0576 45.67C92.8076 45.5 92.5076 45.415 92.1576 45.415C91.8076 45.415 91.5076 45.5 91.2576 45.67C91.0076 45.84 90.8176 46.07 90.6876 46.36C90.5676 46.65 90.5076 46.99 90.5076 47.38V47.425Z" fill="black"/>
</g>
<defs>
<clipPath id="clip0_1_2">
<rect width="100" height="100" fill="white"/>
</clipPath>
</defs>
</svg>
