<svg width="100" height="100" viewBox="0 0 100 100" fill="none" xmlns="http://www.w3.org/2000/svg">
<g clip-path="url(#clip0_1_2)">
<rect width="100" height="100" fill="white"/>
<path d="M10.5656 52C10.4656 52 10.3806 51.965 10.3106 51.895C10.2406 51.825 10.2056 51.74 10.2056 51.64V41.875C10.2056 41.765 10.2406 41.675 10.3106 41.605C10.3806 41.535 10.4656 41.5 10.5656 41.5H14.4506C15.6606 41.5 16.6156 41.78 17.3156 42.34C18.0156 42.9 18.3656 43.715 18.3656 44.785C18.3656 45.525 18.1806 46.14 17.8106 46.63C17.4506 47.12 16.9656 47.475 16.3556 47.695L18.5456 51.52C18.5756 51.58 18.5906 51.635 18.5906 51.685C18.5906 51.775 18.5556 51.85 18.4856 51.91C18.4256 51.97 18.3556 52 18.2756 52H16.9106C16.7406 52 16.6106 51.955 16.5206 51.865C16.4306 51.775 16.3606 51.685 16.3106 51.595L14.3756 48.04H12.2906V51.64C12.2906 51.74 12.2556 51.825 12.1856 51.895C12.1256 51.965 12.0406 52 11.9306 52H10.5656ZM12.2906 46.345H14.4056C15.0156 46.345 15.4706 46.21 15.7706 45.94C16.0706 45.66 16.2206 45.27 16.2206 44.77C16.2206 44.27 16.0706 43.88 15.7706 43.6C15.4806 43.31 15.0256 43.165 14.4056 43.165H12.2906V46.345ZM23.3905 52.15C22.2805 52.15 21.4005 51.83 20.7505 51.19C20.1005 50.55 19.7505 49.64 19.7005 48.46C19.6905 48.36 19.6855 48.235 19.6855 48.085C19.6855 47.925 19.6905 47.8 19.7005 47.71C19.7405 46.96 19.9105 46.31 20.2105 45.76C20.5205 45.21 20.9455 44.79 21.4855 44.5C22.0255 44.2 22.6605 44.05 23.3905 44.05C24.2005 44.05 24.8805 44.22 25.4305 44.56C25.9805 44.89 26.3955 45.355 26.6755 45.955C26.9555 46.545 27.0955 47.23 27.0955 48.01V48.325C27.0955 48.425 27.0605 48.51 26.9905 48.58C26.9205 48.65 26.8305 48.685 26.7205 48.685H21.7405C21.7405 48.685 21.7405 48.7 21.7405 48.73C21.7405 48.76 21.7405 48.785 21.7405 48.805C21.7505 49.155 21.8155 49.48 21.9355 49.78C22.0655 50.07 22.2505 50.305 22.4905 50.485C22.7405 50.665 23.0355 50.755 23.3755 50.755C23.6555 50.755 23.8905 50.715 24.0805 50.635C24.2705 50.545 24.4255 50.445 24.5455 50.335C24.6655 50.225 24.7505 50.135 24.8005 50.065C24.8905 49.945 24.9605 49.875 25.0105 49.855C25.0705 49.825 25.1555 49.81 25.2655 49.81H26.5555C26.6555 49.81 26.7355 49.84 26.7955 49.9C26.8655 49.96 26.8955 50.035 26.8855 50.125C26.8755 50.285 26.7905 50.48 26.6305 50.71C26.4805 50.94 26.2605 51.165 25.9705 51.385C25.6805 51.605 25.3155 51.79 24.8755 51.94C24.4455 52.08 23.9505 52.15 23.3905 52.15ZM21.7405 47.425H25.0555V47.38C25.0555 46.99 24.9905 46.65 24.8605 46.36C24.7305 46.07 24.5405 45.84 24.2905 45.67C24.0405 45.5 23.7405 45.415 23.3905 45.415C23.0405 45.415 22.7405 45.5 22.4905 45.67C22.2405 45.84 22.0505 46.07 21.9205 46.36C21.8005 46.65 21.7405 46.99 21.7405 47.38V47.425ZM30.9528 52.15C30.4328 52.15 29.9628 52.05 29.5428 51.85C29.1228 51.64 28.7878 51.365 28.5378 51.025C28.2978 50.675 28.1778 50.285 28.1778 49.855C28.1778 49.155 28.4578 48.6 29.0178 48.19C29.5878 47.77 30.3378 47.49 31.2678 47.35L33.3228 47.05V46.735C33.3228 46.315 33.2178 45.99 33.0078 45.76C32.7978 45.53 32.4378 45.415 31.9278 45.415C31.5678 45.415 31.2728 45.49 31.0428 45.64C30.8228 45.78 30.6578 45.97 30.5478 46.21C30.4678 46.34 30.3528 46.405 30.2028 46.405H29.0178C28.9078 46.405 28.8228 46.375 28.7628 46.315C28.7128 46.255 28.6878 46.175 28.6878 46.075C28.6978 45.915 28.7628 45.72 28.8828 45.49C29.0028 45.26 29.1928 45.04 29.4528 44.83C29.7128 44.61 30.0478 44.425 30.4578 44.275C30.8678 44.125 31.3628 44.05 31.9428 44.05C32.5728 44.05 33.1028 44.13 33.5328 44.29C33.9728 44.44 34.3228 44.645 34.5828 44.905C34.8428 45.165 35.0328 45.47 35.1528 45.82C35.2728 46.17 35.3328 46.54 35.3328 46.93V51.64C35.3328 51.74 35.2978 51.825 35.2278 51.895C35.1578 51.965 35.0728 52 34.9728 52H33.7578C33.6478 52 33.5578 51.965 33.4878 51.895C33.4278 51.825 33.3978 51.74 33.3978 51.64V51.055C33.2678 51.245 33.0928 51.425 32.8728 51.595C32.6528 51.755 32.3828 51.89 32.0628 52C31.7528 52.1 31.3828 52.15 30.9528 52.15ZM31.4628 50.725C31.8128 50.725 32.1278 50.65 32.4078 50.5C32.6978 50.35 32.9228 50.12 33.0828 49.81C33.2528 49.49 33.3378 49.09 33.3378 48.61V48.295L31.8378 48.535C31.2478 48.625 30.8078 48.77 30.5178 48.97C30.2278 49.17 30.0828 49.415 30.0828 49.705C30.0828 49.925 30.1478 50.115 30.2778 50.275C30.4178 50.425 30.5928 50.54 30.8028 50.62C31.0128 50.69 31.2328 50.725 31.4628 50.725ZM37.6321 52C37.5321 52 37.4471 51.965 37.3771 51.895C37.3071 51.825 37.2721 51.74 37.2721 51.64V41.71C37.2721 41.61 37.3071 41.525 37.3771 41.455C37.4471 41.385 37.5321 41.35 37.6321 41.35H38.8771C38.9771 41.35 39.0621 41.385 39.1321 41.455C39.2021 41.525 39.2371 41.61 39.2371 41.71V51.64C39.2371 51.74 39.2021 51.825 39.1321 51.895C39.0621 51.965 38.9771 52 38.8771 52H37.6321ZM45.1946 52C45.0946 52 45.0096 51.965 44.9396 51.895C44.8696 51.825 44.8346 51.74 44.8346 51.64V41.875C44.8346 41.765 44.8696 41.675 44.9396 41.605C45.0096 41.535 45.0946 41.5 45.1946 41.5H51.7946C51.9046 41.5 51.9946 41.535 52.0646 41.605C52.1346 41.675 52.1696 41.765 52.1696 41.875V42.865C52.1696 42.965 52.1346 43.05 52.0646 43.12C51.9946 43.19 51.9046 43.225 51.7946 43.225H46.8596V45.88H51.4646C51.5746 45.88 51.6646 45.915 51.7346 45.985C51.8046 46.045 51.8396 46.13 51.8396 46.24V47.17C51.8396 47.28 51.8046 47.37 51.7346 47.44C51.6646 47.5 51.5746 47.53 51.4646 47.53H46.8596V50.275H51.9146C52.0246 50.275 52.1146 50.31 52.1846 50.38C52.2546 50.45 52.2896 50.54 52.2896 50.65V51.64C52.2896 51.74 52.2546 51.825 52.1846 51.895C52.1146 51.965 52.0246 52 51.9146 52H45.1946ZM56.9406 52.15C56.3406 52.15 55.8256 52.08 55.3956 51.94C54.9756 51.8 54.6306 51.625 54.3606 51.415C54.0906 51.205 53.8906 50.995 53.7606 50.785C53.6306 50.575 53.5606 50.4 53.5506 50.26C53.5406 50.15 53.5706 50.065 53.6406 50.005C53.7206 49.935 53.8056 49.9 53.8956 49.9H55.0806C55.1206 49.9 55.1556 49.905 55.1856 49.915C55.2156 49.925 55.2556 49.955 55.3056 50.005C55.4356 50.115 55.5706 50.23 55.7106 50.35C55.8606 50.47 56.0356 50.575 56.2356 50.665C56.4356 50.745 56.6856 50.785 56.9856 50.785C57.3756 50.785 57.7006 50.71 57.9606 50.56C58.2306 50.4 58.3656 50.175 58.3656 49.885C58.3656 49.675 58.3056 49.505 58.1856 49.375C58.0756 49.245 57.8656 49.13 57.5556 49.03C57.2456 48.92 56.8056 48.805 56.2356 48.685C55.6756 48.555 55.2106 48.39 54.8406 48.19C54.4706 47.99 54.1956 47.74 54.0156 47.44C53.8356 47.14 53.7456 46.79 53.7456 46.39C53.7456 46 53.8606 45.63 54.0906 45.28C54.3306 44.92 54.6806 44.625 55.1406 44.395C55.6106 44.165 56.1906 44.05 56.8806 44.05C57.4206 44.05 57.8906 44.12 58.2906 44.26C58.6906 44.39 59.0206 44.555 59.2806 44.755C59.5506 44.955 59.7556 45.16 59.8956 45.37C60.0356 45.57 60.1106 45.745 60.1206 45.895C60.1306 46.005 60.1006 46.095 60.0306 46.165C59.9606 46.225 59.8806 46.255 59.7906 46.255H58.6806C58.6306 46.255 58.5856 46.245 58.5456 46.225C58.5056 46.205 58.4656 46.18 58.4256 46.15C58.3156 46.05 58.1956 45.945 58.0656 45.835C57.9356 45.725 57.7756 45.63 57.5856 45.55C57.4056 45.46 57.1656 45.415 56.8656 45.415C56.4856 45.415 56.1956 45.5 55.9956 45.67C55.7956 45.83 55.6956 46.035 55.6956 46.285C55.6956 46.455 55.7406 46.605 55.8306 46.735C55.9306 46.855 56.1256 46.97 56.4156 47.08C56.7056 47.19 57.1456 47.305 57.7356 47.425C58.4056 47.545 58.9356 47.725 59.3256 47.965C59.7256 48.195 60.0056 48.465 60.1656 48.775C60.3356 49.075 60.4206 49.41 60.4206 49.78C60.4206 50.23 60.2856 50.635 60.0156 50.995C59.7556 51.355 59.3656 51.64 58.8456 51.85C58.3356 52.05 57.7006 52.15 56.9406 52.15ZM65.4647 52C64.8647 52 64.3597 51.895 63.9497 51.685C63.5397 51.475 63.2347 51.165 63.0347 50.755C62.8347 50.335 62.7347 49.815 62.7347 49.195V45.79H61.5497C61.4497 45.79 61.3647 45.755 61.2947 45.685C61.2247 45.615 61.1897 45.53 61.1897 45.43V44.56C61.1897 44.46 61.2247 44.375 61.2947 44.305C61.3647 44.235 61.4497 44.2 61.5497 44.2H62.7347V41.71C62.7347 41.61 62.7647 41.525 62.8247 41.455C62.8947 41.385 62.9847 41.35 63.0947 41.35H64.3097C64.4097 41.35 64.4947 41.385 64.5647 41.455C64.6347 41.525 64.6697 41.61 64.6697 41.71V44.2H66.5447C66.6447 44.2 66.7297 44.235 66.7997 44.305C66.8697 44.375 66.9047 44.46 66.9047 44.56V45.43C66.9047 45.53 66.8697 45.615 66.7997 45.685C66.7297 45.755 66.6447 45.79 66.5447 45.79H64.6697V49.045C64.6697 49.455 64.7397 49.775 64.8797 50.005C65.0297 50.235 65.2847 50.35 65.6447 50.35H66.6797C66.7797 50.35 66.8647 50.385 66.9347 50.455C67.0047 50.525 67.0397 50.61 67.0397 50.71V51.64C67.0397 51.74 67.0047 51.825 66.9347 51.895C66.8647 51.965 66.7797 52 66.6797 52H65.4647ZM70.6354 52.15C70.1154 52.15 69.6454 52.05 69.2254 51.85C68.8054 51.64 68.4704 51.365 68.2204 51.025C67.9804 50.675 67.8604 50.285 67.8604 49.855C67.8604 49.155 68.1404 48.6 68.7004 48.19C69.2704 47.77 70.0204 47.49 70.9504 47.35L73.0054 47.05V46.735C73.0054 46.315 72.9004 45.99 72.6904 45.76C72.4804 45.53 72.1204 45.415 71.6104 45.415C71.2504 45.415 70.9554 45.49 70.7254 45.64C70.5054 45.78 70.3404 45.97 70.2304 46.21C70.1504 46.34 70.0354 46.405 69.8854 46.405H68.7004C68.5904 46.405 68.5054 46.375 68.4454 46.315C68.3954 46.255 68.3704 46.175 68.3704 46.075C68.3804 45.915 68.4454 45.72 68.5654 45.49C68.6854 45.26 68.8754 45.04 69.1354 44.83C69.3954 44.61 69.7304 44.425 70.1404 44.275C70.5504 44.125 71.0454 44.05 71.6254 44.05C72.2554 44.05 72.7854 44.13 73.2154 44.29C73.6554 44.44 74.0054 44.645 74.2654 44.905C74.5254 45.165 74.7154 45.47 74.8354 45.82C74.9554 46.17 75.0154 46.54 75.0154 46.93V51.64C75.0154 51.74 74.9804 51.825 74.9104 51.895C74.8404 51.965 74.7554 52 74.6554 52H73.4404C73.3304 52 73.2404 51.965 73.1704 51.895C73.1104 51.825 73.0804 51.74 73.0804 51.64V51.055C72.9504 51.245 72.7754 51.425 72.5554 51.595C72.3354 51.755 72.0654 51.89 71.7454 52C71.4354 52.1 71.0654 52.15 70.6354 52.15ZM71.1454 50.725C71.4954 50.725 71.8104 50.65 72.0904 50.5C72.3804 50.35 72.6054 50.12 72.7654 49.81C72.9354 49.49 73.0204 49.09 73.0204 48.61V48.295L71.5204 48.535C70.9304 48.625 70.4904 48.77 70.2004 48.97C69.9104 49.17 69.7654 49.415 69.7654 49.705C69.7654 49.925 69.8304 50.115 69.9604 50.275C70.1004 50.425 70.2754 50.54 70.4854 50.62C70.6954 50.69 70.9154 50.725 71.1454 50.725ZM80.3915 52C79.7915 52 79.2865 51.895 78.8765 51.685C78.4665 51.475 78.1615 51.165 77.9615 50.755C77.7615 50.335 77.6615 49.815 77.6615 49.195V45.79H76.4765C76.3765 45.79 76.2915 45.755 76.2215 45.685C76.1515 45.615 76.1165 45.53 76.1165 45.43V44.56C76.1165 44.46 76.1515 44.375 76.2215 44.305C76.2915 44.235 76.3765 44.2 76.4765 44.2H77.6615V41.71C77.6615 41.61 77.6915 41.525 77.7515 41.455C77.8215 41.385 77.9115 41.35 78.0215 41.35H79.2365C79.3365 41.35 79.4215 41.385 79.4915 41.455C79.5615 41.525 79.5965 41.61 79.5965 41.71V44.2H81.4715C81.5715 44.2 81.6565 44.235 81.7265 44.305C81.7965 44.375 81.8315 44.46 81.8315 44.56V45.43C81.8315 45.53 81.7965 45.615 81.7265 45.685C81.6565 45.755 81.5715 45.79 81.4715 45.79H79.5965V49.045C79.5965 49.455 79.6665 49.775 79.8065 50.005C79.9565 50.235 80.2115 50.35 80.5715 50.35H81.6065C81.7065 50.35 81.7915 50.385 81.8615 50.455C81.9315 50.525 81.9665 50.61 81.9665 50.71V51.64C81.9665 51.74 81.9315 51.825 81.8615 51.895C81.7915 51.965 81.7065 52 81.6065 52H80.3915ZM86.6571 52.15C85.5471 52.15 84.6671 51.83 84.0171 51.19C83.3671 50.55 83.0171 49.64 82.9671 48.46C82.9571 48.36 82.9521 48.235 82.9521 48.085C82.9521 47.925 82.9571 47.8 82.9671 47.71C83.0071 46.96 83.1771 46.31 83.4771 45.76C83.7871 45.21 84.2121 44.79 84.7521 44.5C85.2921 44.2 85.9271 44.05 86.6571 44.05C87.4671 44.05 88.1471 44.22 88.6971 44.56C89.2471 44.89 89.6621 45.355 89.9421 45.955C90.2221 46.545 90.3621 47.23 90.3621 48.01V48.325C90.3621 48.425 90.3271 48.51 90.2571 48.58C90.1871 48.65 90.0971 48.685 89.9871 48.685H85.0071C85.0071 48.685 85.0071 48.7 85.0071 48.73C85.0071 48.76 85.0071 48.785 85.0071 48.805C85.0171 49.155 85.0821 49.48 85.2021 49.78C85.3321 50.07 85.5171 50.305 85.7571 50.485C86.0071 50.665 86.3021 50.755 86.6421 50.755C86.9221 50.755 87.1571 50.715 87.3471 50.635C87.5371 50.545 87.6921 50.445 87.8121 50.335C87.9321 50.225 88.0171 50.135 88.0671 50.065C88.1571 49.945 88.2271 49.875 88.2771 49.855C88.3371 49.825 88.4221 49.81 88.5321 49.81H89.8221C89.9221 49.81 90.0021 49.84 90.0621 49.9C90.1321 49.96 90.1621 50.035 90.1521 50.125C90.1421 50.285 90.0571 50.48 89.8971 50.71C89.7471 50.94 89.5271 51.165 89.2371 51.385C88.9471 51.605 88.5821 51.79 88.1421 51.94C87.7121 52.08 87.2171 52.15 86.6571 52.15ZM85.0071 47.425H88.3221V47.38C88.3221 46.99 88.2571 46.65 88.1271 46.36C87.9971 46.07 87.8071 45.84 87.5571 45.67C87.3071 45.5 87.0071 45.415 86.6571 45.415C86.3071 45.415 86.0071 45.5 85.7571 45.67C85.5071 45.84 85.3171 46.07 85.1871 46.36C85.0671 46.65 85.0071 46.99 85.0071 47.38V47.425Z" fill="black"/>
</g>
<defs>
<clipPath id="clip0_1_2">
<rect width="100" height="100" fill="white"/>
</clipPath>
</defs>
</svg>
