<svg width="82" height="82" viewBox="0 0 82 82" fill="none" xmlns="http://www.w3.org/2000/svg">
<rect width="82" height="82" fill="black"/>
<path d="M36.0938 64C35.6172 64 35.2055 63.8483 34.8588 63.545C34.5555 63.1983 34.4038 62.7867 34.4038 62.31V30.59H23.2238C22.7472 30.59 22.3355 30.4383 21.9888 30.135C21.6855 29.7883 21.5338 29.3767 21.5338 28.9V20.19C21.5338 19.7133 21.6855 19.3233 21.9888 19.02C22.3355 18.6733 22.7472 18.5 23.2238 18.5H59.7538C60.2305 18.5 60.6205 18.6733 60.9238 19.02C61.2705 19.3233 61.4438 19.7133 61.4438 20.19V28.9C61.4438 29.3767 61.2705 29.7883 60.9238 30.135C60.6205 30.4383 60.2305 30.59 59.7538 30.59H48.5738V62.31C48.5738 62.7867 48.4005 63.1983 48.0538 63.545C47.7505 63.8483 47.3605 64 46.8838 64H36.0938Z" fill="#F3713C"/>
</svg>
