<svg width="82" height="82" viewBox="0 0 82 82" fill="none" xmlns="http://www.w3.org/2000/svg">
<rect width="82" height="82" fill="black"/>
<path d="M18.7911 64C18.4011 64 18.0544 63.87 17.7511 63.61C17.4911 63.3067 17.3611 62.96 17.3611 62.57C17.3611 62.3967 17.4044 62.245 17.4911 62.115L32.3111 20.515C32.4411 20.0383 32.7227 19.5833 33.1561 19.15C33.6327 18.7167 34.2611 18.5 35.0411 18.5H46.9361C47.7594 18.5 48.3877 18.7167 48.8211 19.15C49.2544 19.5833 49.5361 20.0383 49.6661 20.515L64.5511 62.115C64.5944 62.245 64.6161 62.3967 64.6161 62.57C64.6161 62.96 64.4644 63.3067 64.1611 63.61C63.9011 63.87 63.5761 64 63.1861 64H53.1761C52.4394 64 51.8977 63.8267 51.5511 63.48C51.2044 63.1333 50.9661 62.8083 50.8361 62.505L48.8211 57.045H33.1561L31.1411 62.505C31.0111 62.8083 30.7727 63.1333 30.4261 63.48C30.1227 63.8267 29.5811 64 28.8011 64H18.7911ZM36.1461 46.06H45.8311L40.9561 31.435L36.1461 46.06Z" fill="#F3713C"/>
</svg>
