<svg width="82" height="82" viewBox="0 0 82 82" fill="none" xmlns="http://www.w3.org/2000/svg">
<rect width="82" height="82" fill="black"/>
<path d="M41.8324 64.65C37.7157 64.65 34.119 64.0217 31.0424 62.765C27.9657 61.465 25.539 59.515 23.7624 56.915C22.029 54.315 21.0757 51.0217 20.9024 47.035C20.859 45.2583 20.8374 43.3517 20.8374 41.315C20.8374 39.2783 20.859 37.3283 20.9024 35.465C21.0757 31.565 22.0507 28.315 23.8274 25.715C25.6474 23.0717 28.0957 21.1 31.1724 19.8C34.2924 18.5 37.8457 17.85 41.8324 17.85C44.6924 17.85 47.3574 18.1967 49.8274 18.89C52.3407 19.54 54.5724 20.5583 56.5224 21.945C58.4724 23.2883 60.0107 24.9783 61.1374 27.015C62.264 29.0083 62.849 31.3483 62.8924 34.035C62.8924 34.425 62.7407 34.75 62.4374 35.01C62.1774 35.27 61.8524 35.4 61.4624 35.4H50.4774C49.8274 35.4 49.3507 35.27 49.0474 35.01C48.744 34.75 48.484 34.295 48.2674 33.645C47.704 31.7817 46.8807 30.525 45.7974 29.875C44.714 29.225 43.3924 28.9 41.8324 28.9C39.9257 28.9 38.409 29.42 37.2824 30.46C36.1557 31.4567 35.549 33.2333 35.4624 35.79C35.3324 39.3433 35.3324 42.9833 35.4624 46.71C35.549 49.2667 36.1557 51.065 37.2824 52.105C38.409 53.1017 39.9257 53.6 41.8324 53.6C43.3924 53.6 44.714 53.2533 45.7974 52.56C46.924 51.8667 47.7474 50.6317 48.2674 48.855C48.4407 48.1617 48.679 47.7067 48.9824 47.49C49.329 47.23 49.8274 47.1 50.4774 47.1H61.4624C61.8524 47.1 62.1774 47.23 62.4374 47.49C62.7407 47.75 62.8924 48.075 62.8924 48.465C62.849 51.1517 62.264 53.5133 61.1374 55.55C60.0107 57.5433 58.4724 59.2333 56.5224 60.62C54.5724 61.9633 52.3407 62.9817 49.8274 63.675C47.3574 64.325 44.6924 64.65 41.8324 64.65Z" fill="#F3713C"/>
</svg>
