<svg width="82" height="82" viewBox="0 0 82 82" fill="none" xmlns="http://www.w3.org/2000/svg">
<rect width="82" height="82" fill="black"/>
<path d="M24.7493 64C24.316 64 23.926 63.8483 23.5793 63.545C23.2326 63.1983 23.0593 62.7867 23.0593 62.31V20.19C23.0593 19.7133 23.2326 19.3233 23.5793 19.02C23.926 18.6733 24.316 18.5 24.7493 18.5H43.7293C47.4993 18.5 50.771 19.0633 53.5443 20.19C56.361 21.3167 58.5493 23.0283 60.1093 25.325C61.6693 27.6217 62.4493 30.5033 62.4493 33.97C62.4493 37.4367 61.6693 40.2967 60.1093 42.55C58.5493 44.76 56.361 46.385 53.5443 47.425C50.771 48.465 47.4993 48.985 43.7293 48.985H37.5543V62.31C37.5543 62.7867 37.381 63.1983 37.0343 63.545C36.731 63.8483 36.341 64 35.8643 64H24.7493ZM37.2943 38.52H43.4043C44.661 38.52 45.7226 38.1517 46.5893 37.415C47.4993 36.635 47.9543 35.4433 47.9543 33.84C47.9543 32.6267 47.6076 31.5217 46.9143 30.525C46.221 29.5283 45.051 29.03 43.4043 29.03H37.2943V38.52Z" fill="#F3713C"/>
</svg>
