<svg width="100" height="100" viewBox="0 0 100 100" fill="none" xmlns="http://www.w3.org/2000/svg">
<g clip-path="url(#clip0_1_2)">
<rect width="100" height="100" fill="white"/>
<path d="M6.61789 52C6.51789 52 6.43289 51.965 6.36289 51.895C6.29289 51.825 6.25789 51.74 6.25789 51.64V41.875C6.25789 41.765 6.29289 41.675 6.36289 41.605C6.43289 41.535 6.51789 41.5 6.61789 41.5H10.5029C11.7129 41.5 12.6679 41.78 13.3679 42.34C14.0679 42.9 14.4179 43.715 14.4179 44.785C14.4179 45.525 14.2329 46.14 13.8629 46.63C13.5029 47.12 13.0179 47.475 12.4079 47.695L14.5979 51.52C14.6279 51.58 14.6429 51.635 14.6429 51.685C14.6429 51.775 14.6079 51.85 14.5379 51.91C14.4779 51.97 14.4079 52 14.3279 52H12.9629C12.7929 52 12.6629 51.955 12.5729 51.865C12.4829 51.775 12.4129 51.685 12.3629 51.595L10.4279 48.04H8.34289V51.64C8.34289 51.74 8.30789 51.825 8.23789 51.895C8.17789 51.965 8.09289 52 7.98289 52H6.61789ZM8.34289 46.345H10.4579C11.0679 46.345 11.5229 46.21 11.8229 45.94C12.1229 45.66 12.2729 45.27 12.2729 44.77C12.2729 44.27 12.1229 43.88 11.8229 43.6C11.5329 43.31 11.0779 43.165 10.4579 43.165H8.34289V46.345ZM19.4428 52.15C18.3328 52.15 17.4528 51.83 16.8028 51.19C16.1528 50.55 15.8028 49.64 15.7528 48.46C15.7428 48.36 15.7378 48.235 15.7378 48.085C15.7378 47.925 15.7428 47.8 15.7528 47.71C15.7928 46.96 15.9628 46.31 16.2628 45.76C16.5728 45.21 16.9978 44.79 17.5378 44.5C18.0778 44.2 18.7128 44.05 19.4428 44.05C20.2528 44.05 20.9328 44.22 21.4828 44.56C22.0328 44.89 22.4478 45.355 22.7278 45.955C23.0078 46.545 23.1478 47.23 23.1478 48.01V48.325C23.1478 48.425 23.1128 48.51 23.0428 48.58C22.9728 48.65 22.8828 48.685 22.7728 48.685H17.7928C17.7928 48.685 17.7928 48.7 17.7928 48.73C17.7928 48.76 17.7928 48.785 17.7928 48.805C17.8028 49.155 17.8678 49.48 17.9878 49.78C18.1178 50.07 18.3028 50.305 18.5428 50.485C18.7928 50.665 19.0878 50.755 19.4278 50.755C19.7078 50.755 19.9428 50.715 20.1328 50.635C20.3228 50.545 20.4778 50.445 20.5978 50.335C20.7178 50.225 20.8028 50.135 20.8528 50.065C20.9428 49.945 21.0128 49.875 21.0628 49.855C21.1228 49.825 21.2078 49.81 21.3178 49.81H22.6078C22.7078 49.81 22.7878 49.84 22.8478 49.9C22.9178 49.96 22.9478 50.035 22.9378 50.125C22.9278 50.285 22.8428 50.48 22.6828 50.71C22.5328 50.94 22.3128 51.165 22.0228 51.385C21.7328 51.605 21.3678 51.79 20.9278 51.94C20.4978 52.08 20.0028 52.15 19.4428 52.15ZM17.7928 47.425H21.1078V47.38C21.1078 46.99 21.0428 46.65 20.9128 46.36C20.7828 46.07 20.5928 45.84 20.3428 45.67C20.0928 45.5 19.7928 45.415 19.4428 45.415C19.0928 45.415 18.7928 45.5 18.5428 45.67C18.2928 45.84 18.1028 46.07 17.9728 46.36C17.8528 46.65 17.7928 46.99 17.7928 47.38V47.425ZM28.2357 52C27.6357 52 27.1307 51.895 26.7207 51.685C26.3107 51.475 26.0057 51.165 25.8057 50.755C25.6057 50.335 25.5057 49.815 25.5057 49.195V45.79H24.3207C24.2207 45.79 24.1357 45.755 24.0657 45.685C23.9957 45.615 23.9607 45.53 23.9607 45.43V44.56C23.9607 44.46 23.9957 44.375 24.0657 44.305C24.1357 44.235 24.2207 44.2 24.3207 44.2H25.5057V41.71C25.5057 41.61 25.5357 41.525 25.5957 41.455C25.6657 41.385 25.7557 41.35 25.8657 41.35H27.0807C27.1807 41.35 27.2657 41.385 27.3357 41.455C27.4057 41.525 27.4407 41.61 27.4407 41.71V44.2H29.3157C29.4157 44.2 29.5007 44.235 29.5707 44.305C29.6407 44.375 29.6757 44.46 29.6757 44.56V45.43C29.6757 45.53 29.6407 45.615 29.5707 45.685C29.5007 45.755 29.4157 45.79 29.3157 45.79H27.4407V49.045C27.4407 49.455 27.5107 49.775 27.6507 50.005C27.8007 50.235 28.0557 50.35 28.4157 50.35H29.4507C29.5507 50.35 29.6357 50.385 29.7057 50.455C29.7757 50.525 29.8107 50.61 29.8107 50.71V51.64C29.8107 51.74 29.7757 51.825 29.7057 51.895C29.6357 51.965 29.5507 52 29.4507 52H28.2357ZM33.4064 52.15C32.8864 52.15 32.4164 52.05 31.9964 51.85C31.5764 51.64 31.2414 51.365 30.9914 51.025C30.7514 50.675 30.6314 50.285 30.6314 49.855C30.6314 49.155 30.9114 48.6 31.4714 48.19C32.0414 47.77 32.7914 47.49 33.7214 47.35L35.7764 47.05V46.735C35.7764 46.315 35.6714 45.99 35.4614 45.76C35.2514 45.53 34.8914 45.415 34.3814 45.415C34.0214 45.415 33.7264 45.49 33.4964 45.64C33.2764 45.78 33.1114 45.97 33.0014 46.21C32.9214 46.34 32.8064 46.405 32.6564 46.405H31.4714C31.3614 46.405 31.2764 46.375 31.2164 46.315C31.1664 46.255 31.1414 46.175 31.1414 46.075C31.1514 45.915 31.2164 45.72 31.3364 45.49C31.4564 45.26 31.6464 45.04 31.9064 44.83C32.1664 44.61 32.5014 44.425 32.9114 44.275C33.3214 44.125 33.8164 44.05 34.3964 44.05C35.0264 44.05 35.5564 44.13 35.9864 44.29C36.4264 44.44 36.7764 44.645 37.0364 44.905C37.2964 45.165 37.4864 45.47 37.6064 45.82C37.7264 46.17 37.7864 46.54 37.7864 46.93V51.64C37.7864 51.74 37.7514 51.825 37.6814 51.895C37.6114 51.965 37.5264 52 37.4264 52H36.2114C36.1014 52 36.0114 51.965 35.9414 51.895C35.8814 51.825 35.8514 51.74 35.8514 51.64V51.055C35.7214 51.245 35.5464 51.425 35.3264 51.595C35.1064 51.755 34.8364 51.89 34.5164 52C34.2064 52.1 33.8364 52.15 33.4064 52.15ZM33.9164 50.725C34.2664 50.725 34.5814 50.65 34.8614 50.5C35.1514 50.35 35.3764 50.12 35.5364 49.81C35.7064 49.49 35.7914 49.09 35.7914 48.61V48.295L34.2914 48.535C33.7014 48.625 33.2614 48.77 32.9714 48.97C32.6814 49.17 32.5364 49.415 32.5364 49.705C32.5364 49.925 32.6014 50.115 32.7314 50.275C32.8714 50.425 33.0464 50.54 33.2564 50.62C33.4664 50.69 33.6864 50.725 33.9164 50.725ZM40.0707 52C39.9707 52 39.8857 51.965 39.8157 51.895C39.7457 51.825 39.7107 51.74 39.7107 51.64V44.56C39.7107 44.46 39.7457 44.375 39.8157 44.305C39.8857 44.235 39.9707 44.2 40.0707 44.2H41.3157C41.4257 44.2 41.5107 44.235 41.5707 44.305C41.6407 44.375 41.6757 44.46 41.6757 44.56V51.64C41.6757 51.74 41.6407 51.825 41.5707 51.895C41.5107 51.965 41.4257 52 41.3157 52H40.0707ZM40.0107 42.91C39.9007 42.91 39.8107 42.88 39.7407 42.82C39.6807 42.75 39.6507 42.66 39.6507 42.55V41.47C39.6507 41.37 39.6807 41.285 39.7407 41.215C39.8107 41.145 39.9007 41.11 40.0107 41.11H41.3757C41.4857 41.11 41.5757 41.145 41.6457 41.215C41.7157 41.285 41.7507 41.37 41.7507 41.47V42.55C41.7507 42.66 41.7157 42.75 41.6457 42.82C41.5757 42.88 41.4857 42.91 41.3757 42.91H40.0107ZM44.0408 52C43.9408 52 43.8558 51.965 43.7858 51.895C43.7158 51.825 43.6808 51.74 43.6808 51.64V41.71C43.6808 41.61 43.7158 41.525 43.7858 41.455C43.8558 41.385 43.9408 41.35 44.0408 41.35H45.2858C45.3858 41.35 45.4708 41.385 45.5408 41.455C45.6108 41.525 45.6458 41.61 45.6458 41.71V51.64C45.6458 51.74 45.6108 51.825 45.5408 51.895C45.4708 51.965 45.3858 52 45.2858 52H44.0408ZM54.4682 52.15C53.7382 52.15 53.0982 52.03 52.5482 51.79C51.9982 51.54 51.5732 51.19 51.2732 50.74C50.9732 50.28 50.8232 49.745 50.8232 49.135C50.8232 48.695 50.9132 48.305 51.0932 47.965C51.2732 47.615 51.5182 47.305 51.8282 47.035C52.1482 46.755 52.5032 46.5 52.8932 46.27C52.4632 45.82 52.1582 45.41 51.9782 45.04C51.7982 44.67 51.7082 44.295 51.7082 43.915C51.7082 43.455 51.8282 43.035 52.0682 42.655C52.3082 42.265 52.6532 41.95 53.1032 41.71C53.5532 41.47 54.1032 41.35 54.7532 41.35C55.3632 41.35 55.8832 41.465 56.3132 41.695C56.7532 41.925 57.0932 42.235 57.3332 42.625C57.5732 43.005 57.6932 43.425 57.6932 43.885C57.6932 44.305 57.5932 44.68 57.3932 45.01C57.2032 45.33 56.9432 45.62 56.6132 45.88C56.2832 46.14 55.9132 46.385 55.5032 46.615L57.6632 48.76C57.7832 48.56 57.9182 48.3 58.0682 47.98C58.2182 47.65 58.3482 47.245 58.4582 46.765C58.4882 46.595 58.5932 46.51 58.7732 46.51H59.8682C59.9582 46.51 60.0282 46.54 60.0782 46.6C60.1382 46.65 60.1682 46.72 60.1682 46.81C60.1582 47.02 60.1132 47.25 60.0332 47.5C59.9632 47.75 59.8632 48.015 59.7332 48.295C59.6132 48.575 59.4732 48.85 59.3132 49.12C59.1532 49.39 58.9832 49.645 58.8032 49.885L60.3932 51.505C60.4732 51.575 60.5132 51.65 60.5132 51.73C60.5132 51.81 60.4882 51.875 60.4382 51.925C60.3882 51.975 60.3182 52 60.2282 52H58.7882C58.6882 52 58.6082 51.985 58.5482 51.955C58.4882 51.925 58.4332 51.89 58.3832 51.85L57.5582 51.04C57.1582 51.39 56.7032 51.665 56.1932 51.865C55.6932 52.055 55.1182 52.15 54.4682 52.15ZM54.4682 50.605C54.8182 50.605 55.1582 50.54 55.4882 50.41C55.8182 50.28 56.1232 50.085 56.4032 49.825L54.0032 47.455C53.6532 47.645 53.3482 47.87 53.0882 48.13C52.8382 48.39 52.7132 48.705 52.7132 49.075C52.7132 49.395 52.7932 49.67 52.9532 49.9C53.1232 50.12 53.3432 50.295 53.6132 50.425C53.8832 50.545 54.1682 50.605 54.4682 50.605ZM54.4532 45.505C54.7232 45.355 54.9732 45.205 55.2032 45.055C55.4332 44.905 55.6132 44.74 55.7432 44.56C55.8832 44.37 55.9532 44.16 55.9532 43.93C55.9532 43.59 55.8382 43.32 55.6082 43.12C55.3782 42.92 55.0882 42.82 54.7382 42.82C54.4182 42.82 54.1332 42.92 53.8832 43.12C53.6432 43.31 53.5232 43.58 53.5232 43.93C53.5232 44.08 53.5482 44.23 53.5982 44.38C53.6582 44.53 53.7532 44.695 53.8832 44.875C54.0232 45.045 54.2132 45.255 54.4532 45.505ZM69.4876 52.15C68.5576 52.15 67.7676 51.99 67.1176 51.67C66.4776 51.34 65.9876 50.875 65.6476 50.275C65.3076 49.665 65.1176 48.935 65.0776 48.085C65.0676 47.675 65.0626 47.235 65.0626 46.765C65.0626 46.295 65.0676 45.845 65.0776 45.415C65.1176 44.575 65.3076 43.85 65.6476 43.24C65.9976 42.63 66.4926 42.165 67.1326 41.845C67.7826 41.515 68.5676 41.35 69.4876 41.35C70.1676 41.35 70.7776 41.44 71.3176 41.62C71.8576 41.8 72.3176 42.05 72.6976 42.37C73.0776 42.68 73.3726 43.045 73.5826 43.465C73.7926 43.885 73.9026 44.34 73.9126 44.83C73.9226 44.92 73.8926 44.995 73.8226 45.055C73.7626 45.115 73.6876 45.145 73.5976 45.145H72.1726C72.0626 45.145 71.9726 45.12 71.9026 45.07C71.8326 45.01 71.7826 44.915 71.7526 44.785C71.5926 44.125 71.3176 43.675 70.9276 43.435C70.5376 43.195 70.0526 43.075 69.4726 43.075C68.8026 43.075 68.2676 43.265 67.8676 43.645C67.4676 44.015 67.2526 44.63 67.2226 45.49C67.1926 46.31 67.1926 47.15 67.2226 48.01C67.2526 48.87 67.4676 49.49 67.8676 49.87C68.2676 50.24 68.8026 50.425 69.4726 50.425C70.0526 50.425 70.5376 50.305 70.9276 50.065C71.3176 49.815 71.5926 49.365 71.7526 48.715C71.7826 48.575 71.8326 48.48 71.9026 48.43C71.9726 48.38 72.0626 48.355 72.1726 48.355H73.5976C73.6876 48.355 73.7626 48.385 73.8226 48.445C73.8926 48.505 73.9226 48.58 73.9126 48.67C73.9026 49.16 73.7926 49.615 73.5826 50.035C73.3726 50.455 73.0776 50.825 72.6976 51.145C72.3176 51.455 71.8576 51.7 71.3176 51.88C70.7776 52.06 70.1676 52.15 69.4876 52.15ZM76.0515 52C75.9515 52 75.8665 51.965 75.7965 51.895C75.7265 51.825 75.6915 51.74 75.6915 51.64V41.875C75.6915 41.765 75.7265 41.675 75.7965 41.605C75.8665 41.535 75.9515 41.5 76.0515 41.5H80.0715C80.8515 41.5 81.5315 41.625 82.1115 41.875C82.6915 42.115 83.1415 42.485 83.4615 42.985C83.7815 43.475 83.9415 44.09 83.9415 44.83C83.9415 45.58 83.7815 46.2 83.4615 46.69C83.1415 47.17 82.6915 47.53 82.1115 47.77C81.5315 48.01 80.8515 48.13 80.0715 48.13H77.8365V51.64C77.8365 51.74 77.8015 51.825 77.7315 51.895C77.6715 51.965 77.5865 52 77.4765 52H76.0515ZM77.8065 46.465H79.9965C80.5765 46.465 81.0215 46.33 81.3315 46.06C81.6415 45.78 81.7965 45.37 81.7965 44.83C81.7965 44.33 81.6515 43.93 81.3615 43.63C81.0715 43.32 80.6165 43.165 79.9965 43.165H77.8065V46.465ZM89.6592 52.15C88.7392 52.15 87.9542 51.99 87.3042 51.67C86.6642 51.35 86.1642 50.89 85.8042 50.29C85.4542 49.68 85.2642 48.955 85.2342 48.115C85.2242 47.685 85.2192 47.225 85.2192 46.735C85.2192 46.235 85.2242 45.765 85.2342 45.325C85.2642 44.495 85.4542 43.785 85.8042 43.195C86.1642 42.605 86.6692 42.15 87.3192 41.83C87.9792 41.51 88.7592 41.35 89.6592 41.35C90.3892 41.35 91.0292 41.45 91.5792 41.65C92.1292 41.84 92.5842 42.09 92.9442 42.4C93.3142 42.7 93.5892 43.025 93.7692 43.375C93.9592 43.725 94.0592 44.05 94.0692 44.35C94.0792 44.44 94.0542 44.515 93.9942 44.575C93.9342 44.635 93.8542 44.665 93.7542 44.665H92.2092C92.1092 44.665 92.0342 44.645 91.9842 44.605C91.9342 44.565 91.8892 44.505 91.8492 44.425C91.7692 44.215 91.6442 44.01 91.4742 43.81C91.3042 43.6 91.0742 43.425 90.7842 43.285C90.4942 43.145 90.1192 43.075 89.6592 43.075C88.9792 43.075 88.4342 43.255 88.0242 43.615C87.6242 43.975 87.4092 44.57 87.3792 45.4C87.3492 46.27 87.3492 47.15 87.3792 48.04C87.4092 48.89 87.6292 49.5 88.0392 49.87C88.4592 50.24 89.0092 50.425 89.6892 50.425C90.1392 50.425 90.5392 50.345 90.8892 50.185C91.2492 50.025 91.5292 49.775 91.7292 49.435C91.9392 49.095 92.0442 48.66 92.0442 48.13V47.665H90.2142C90.1142 47.665 90.0292 47.63 89.9592 47.56C89.8892 47.49 89.8542 47.4 89.8542 47.29V46.495C89.8542 46.385 89.8892 46.295 89.9592 46.225C90.0292 46.155 90.1142 46.12 90.2142 46.12H93.7992C93.9092 46.12 93.9942 46.155 94.0542 46.225C94.1242 46.295 94.1592 46.385 94.1592 46.495V48.07C94.1592 48.91 93.9742 49.635 93.6042 50.245C93.2442 50.855 92.7242 51.325 92.0442 51.655C91.3742 51.985 90.5792 52.15 89.6592 52.15Z" fill="black"/>
</g>
<defs>
<clipPath id="clip0_1_2">
<rect width="100" height="100" fill="white"/>
</clipPath>
</defs>
</svg>
