<svg width="100" height="100" viewBox="0 0 100 100" fill="none" xmlns="http://www.w3.org/2000/svg">
<g clip-path="url(#clip0_1_2)">
<rect width="100" height="100" fill="white"/>
<path d="M8.19102 52C8.11102 52 8.03602 51.97 7.96602 51.91C7.90602 51.85 7.87602 51.775 7.87602 51.685C7.87602 51.645 7.88602 51.6 7.90602 51.55L11.521 41.875C11.551 41.775 11.606 41.69 11.686 41.62C11.776 41.54 11.896 41.5 12.046 41.5H13.681C13.831 41.5 13.946 41.54 14.026 41.62C14.106 41.69 14.166 41.775 14.206 41.875L17.821 51.55C17.831 51.6 17.836 51.645 17.836 51.685C17.836 51.775 17.806 51.85 17.746 51.91C17.686 51.97 17.616 52 17.536 52H16.231C16.091 52 15.986 51.97 15.916 51.91C15.856 51.84 15.816 51.775 15.796 51.715L15.091 49.885H10.636L9.93102 51.715C9.91102 51.775 9.86602 51.84 9.79602 51.91C9.73602 51.97 9.63602 52 9.49602 52H8.19102ZM11.161 48.16H14.566L12.856 43.525L11.161 48.16ZM21.8635 52.15C21.2535 52.15 20.7235 52.015 20.2735 51.745C19.8335 51.465 19.4935 51.075 19.2535 50.575C19.0135 50.065 18.8935 49.465 18.8935 48.775V44.56C18.8935 44.46 18.9285 44.375 18.9985 44.305C19.0685 44.235 19.1535 44.2 19.2535 44.2H20.5735C20.6835 44.2 20.7685 44.235 20.8285 44.305C20.8985 44.375 20.9335 44.46 20.9335 44.56V48.685C20.9335 49.925 21.4785 50.545 22.5685 50.545C23.0885 50.545 23.4985 50.38 23.7985 50.05C24.1085 49.72 24.2635 49.265 24.2635 48.685V44.56C24.2635 44.46 24.2985 44.375 24.3685 44.305C24.4385 44.235 24.5235 44.2 24.6235 44.2H25.9435C26.0435 44.2 26.1285 44.235 26.1985 44.305C26.2685 44.375 26.3035 44.46 26.3035 44.56V51.64C26.3035 51.74 26.2685 51.825 26.1985 51.895C26.1285 51.965 26.0435 52 25.9435 52H24.7285C24.6185 52 24.5285 51.965 24.4585 51.895C24.3985 51.825 24.3685 51.74 24.3685 51.64V51.025C24.0985 51.375 23.7635 51.65 23.3635 51.85C22.9635 52.05 22.4635 52.15 21.8635 52.15ZM31.8099 52C31.2099 52 30.7049 51.895 30.2949 51.685C29.8849 51.475 29.5799 51.165 29.3799 50.755C29.1799 50.335 29.0799 49.815 29.0799 49.195V45.79H27.8949C27.7949 45.79 27.7099 45.755 27.6399 45.685C27.5699 45.615 27.5349 45.53 27.5349 45.43V44.56C27.5349 44.46 27.5699 44.375 27.6399 44.305C27.7099 44.235 27.7949 44.2 27.8949 44.2H29.0799V41.71C29.0799 41.61 29.1099 41.525 29.1699 41.455C29.2399 41.385 29.3299 41.35 29.4399 41.35H30.6549C30.7549 41.35 30.8399 41.385 30.9099 41.455C30.9799 41.525 31.0149 41.61 31.0149 41.71V44.2H32.8899C32.9899 44.2 33.0749 44.235 33.1449 44.305C33.2149 44.375 33.2499 44.46 33.2499 44.56V45.43C33.2499 45.53 33.2149 45.615 33.1449 45.685C33.0749 45.755 32.9899 45.79 32.8899 45.79H31.0149V49.045C31.0149 49.455 31.0849 49.775 31.2249 50.005C31.3749 50.235 31.6299 50.35 31.9899 50.35H33.0249C33.1249 50.35 33.2099 50.385 33.2799 50.455C33.3499 50.525 33.3849 50.61 33.3849 50.71V51.64C33.3849 51.74 33.3499 51.825 33.2799 51.895C33.2099 51.965 33.1249 52 33.0249 52H31.8099ZM38.1656 52.15C37.3656 52.15 36.6906 52.01 36.1406 51.73C35.6006 51.45 35.1856 51.055 34.8956 50.545C34.6156 50.035 34.4556 49.44 34.4156 48.76C34.4056 48.58 34.4006 48.36 34.4006 48.1C34.4006 47.84 34.4056 47.62 34.4156 47.44C34.4556 46.75 34.6206 46.155 34.9106 45.655C35.2106 45.145 35.6306 44.75 36.1706 44.47C36.7206 44.19 37.3856 44.05 38.1656 44.05C38.9456 44.05 39.6056 44.19 40.1456 44.47C40.6956 44.75 41.1156 45.145 41.4056 45.655C41.7056 46.155 41.8756 46.75 41.9156 47.44C41.9256 47.62 41.9306 47.84 41.9306 48.1C41.9306 48.36 41.9256 48.58 41.9156 48.76C41.8756 49.44 41.7106 50.035 41.4206 50.545C41.1406 51.055 40.7256 51.45 40.1756 51.73C39.6356 52.01 38.9656 52.15 38.1656 52.15ZM38.1656 50.665C38.6956 50.665 39.1056 50.5 39.3956 50.17C39.6856 49.83 39.8456 49.335 39.8756 48.685C39.8856 48.535 39.8906 48.34 39.8906 48.1C39.8906 47.86 39.8856 47.665 39.8756 47.515C39.8456 46.875 39.6856 46.385 39.3956 46.045C39.1056 45.705 38.6956 45.535 38.1656 45.535C37.6356 45.535 37.2256 45.705 36.9356 46.045C36.6456 46.385 36.4856 46.875 36.4556 47.515C36.4456 47.665 36.4406 47.86 36.4406 48.1C36.4406 48.34 36.4456 48.535 36.4556 48.685C36.4856 49.335 36.6456 49.83 36.9356 50.17C37.2256 50.5 37.6356 50.665 38.1656 50.665ZM43.9525 52C43.8525 52 43.7675 51.965 43.6975 51.895C43.6275 51.825 43.5925 51.74 43.5925 51.64V44.56C43.5925 44.46 43.6275 44.375 43.6975 44.305C43.7675 44.235 43.8525 44.2 43.9525 44.2H45.1225C45.2225 44.2 45.3075 44.235 45.3775 44.305C45.4475 44.375 45.4825 44.46 45.4825 44.56V45.07C45.6925 44.79 45.9725 44.555 46.3225 44.365C46.6825 44.165 47.1075 44.06 47.5975 44.05C48.7375 44.03 49.5325 44.475 49.9825 45.385C50.2125 44.985 50.5425 44.665 50.9725 44.425C51.4125 44.175 51.8975 44.05 52.4275 44.05C52.9475 44.05 53.4175 44.17 53.8375 44.41C54.2675 44.65 54.6025 45.015 54.8425 45.505C55.0925 45.985 55.2175 46.595 55.2175 47.335V51.64C55.2175 51.74 55.1825 51.825 55.1125 51.895C55.0425 51.965 54.9575 52 54.8575 52H53.6275C53.5275 52 53.4425 51.965 53.3725 51.895C53.3025 51.825 53.2675 51.74 53.2675 51.64V47.455C53.2675 47.005 53.2025 46.65 53.0725 46.39C52.9425 46.12 52.7675 45.93 52.5475 45.82C52.3275 45.71 52.0825 45.655 51.8125 45.655C51.5925 45.655 51.3725 45.71 51.1525 45.82C50.9325 45.93 50.7525 46.12 50.6125 46.39C50.4725 46.65 50.4025 47.005 50.4025 47.455V51.64C50.4025 51.74 50.3675 51.825 50.2975 51.895C50.2275 51.965 50.1425 52 50.0425 52H48.8125C48.7025 52 48.6125 51.965 48.5425 51.895C48.4825 51.825 48.4525 51.74 48.4525 51.64V47.455C48.4525 47.005 48.3825 46.65 48.2425 46.39C48.1025 46.12 47.9225 45.93 47.7025 45.82C47.4825 45.71 47.2475 45.655 46.9975 45.655C46.7675 45.655 46.5425 45.715 46.3225 45.835C46.1025 45.945 45.9225 46.13 45.7825 46.39C45.6425 46.65 45.5725 47.005 45.5725 47.455V51.64C45.5725 51.74 45.5375 51.825 45.4675 51.895C45.3975 51.965 45.3125 52 45.2125 52H43.9525ZM60.5777 52.15C59.7777 52.15 59.1027 52.01 58.5527 51.73C58.0127 51.45 57.5977 51.055 57.3077 50.545C57.0277 50.035 56.8677 49.44 56.8277 48.76C56.8177 48.58 56.8127 48.36 56.8127 48.1C56.8127 47.84 56.8177 47.62 56.8277 47.44C56.8677 46.75 57.0327 46.155 57.3227 45.655C57.6227 45.145 58.0427 44.75 58.5827 44.47C59.1327 44.19 59.7977 44.05 60.5777 44.05C61.3577 44.05 62.0177 44.19 62.5577 44.47C63.1077 44.75 63.5277 45.145 63.8177 45.655C64.1177 46.155 64.2877 46.75 64.3277 47.44C64.3377 47.62 64.3427 47.84 64.3427 48.1C64.3427 48.36 64.3377 48.58 64.3277 48.76C64.2877 49.44 64.1227 50.035 63.8327 50.545C63.5527 51.055 63.1377 51.45 62.5877 51.73C62.0477 52.01 61.3777 52.15 60.5777 52.15ZM60.5777 50.665C61.1077 50.665 61.5177 50.5 61.8077 50.17C62.0977 49.83 62.2577 49.335 62.2877 48.685C62.2977 48.535 62.3027 48.34 62.3027 48.1C62.3027 47.86 62.2977 47.665 62.2877 47.515C62.2577 46.875 62.0977 46.385 61.8077 46.045C61.5177 45.705 61.1077 45.535 60.5777 45.535C60.0477 45.535 59.6377 45.705 59.3477 46.045C59.0577 46.385 58.8977 46.875 58.8677 47.515C58.8577 47.665 58.8527 47.86 58.8527 48.1C58.8527 48.34 58.8577 48.535 58.8677 48.685C58.8977 49.335 59.0577 49.83 59.3477 50.17C59.6377 50.5 60.0477 50.665 60.5777 50.665ZM69.4711 52C68.8711 52 68.3661 51.895 67.9561 51.685C67.5461 51.475 67.2411 51.165 67.0411 50.755C66.8411 50.335 66.7411 49.815 66.7411 49.195V45.79H65.5561C65.4561 45.79 65.3711 45.755 65.3011 45.685C65.2311 45.615 65.1961 45.53 65.1961 45.43V44.56C65.1961 44.46 65.2311 44.375 65.3011 44.305C65.3711 44.235 65.4561 44.2 65.5561 44.2H66.7411V41.71C66.7411 41.61 66.7711 41.525 66.8311 41.455C66.9011 41.385 66.9911 41.35 67.1011 41.35H68.3161C68.4161 41.35 68.5011 41.385 68.5711 41.455C68.6411 41.525 68.6761 41.61 68.6761 41.71V44.2H70.5511C70.6511 44.2 70.7361 44.235 70.8061 44.305C70.8761 44.375 70.9111 44.46 70.9111 44.56V45.43C70.9111 45.53 70.8761 45.615 70.8061 45.685C70.7361 45.755 70.6511 45.79 70.5511 45.79H68.6761V49.045C68.6761 49.455 68.7461 49.775 68.8861 50.005C69.0361 50.235 69.2911 50.35 69.6511 50.35H70.6861C70.7861 50.35 70.8711 50.385 70.9411 50.455C71.0111 50.525 71.0461 50.61 71.0461 50.71V51.64C71.0461 51.74 71.0111 51.825 70.9411 51.895C70.8711 51.965 70.7861 52 70.6861 52H69.4711ZM72.7367 52C72.6367 52 72.5517 51.965 72.4817 51.895C72.4117 51.825 72.3767 51.74 72.3767 51.64V44.56C72.3767 44.46 72.4117 44.375 72.4817 44.305C72.5517 44.235 72.6367 44.2 72.7367 44.2H73.9817C74.0917 44.2 74.1767 44.235 74.2367 44.305C74.3067 44.375 74.3417 44.46 74.3417 44.56V51.64C74.3417 51.74 74.3067 51.825 74.2367 51.895C74.1767 51.965 74.0917 52 73.9817 52H72.7367ZM72.6767 42.91C72.5667 42.91 72.4767 42.88 72.4067 42.82C72.3467 42.75 72.3167 42.66 72.3167 42.55V41.47C72.3167 41.37 72.3467 41.285 72.4067 41.215C72.4767 41.145 72.5667 41.11 72.6767 41.11H74.0417C74.1517 41.11 74.2417 41.145 74.3117 41.215C74.3817 41.285 74.4167 41.37 74.4167 41.47V42.55C74.4167 42.66 74.3817 42.75 74.3117 42.82C74.2417 42.88 74.1517 42.91 74.0417 42.91H72.6767ZM79.0918 52C78.9318 52 78.8118 51.965 78.7318 51.895C78.6618 51.815 78.6018 51.725 78.5518 51.625L75.7468 44.665C75.7268 44.615 75.7168 44.57 75.7168 44.53C75.7168 44.44 75.7468 44.365 75.8068 44.305C75.8768 44.235 75.9568 44.2 76.0468 44.2H77.2618C77.3818 44.2 77.4718 44.235 77.5318 44.305C77.5918 44.365 77.6318 44.425 77.6518 44.485L79.6468 49.75L81.6418 44.485C81.6618 44.425 81.7018 44.365 81.7618 44.305C81.8218 44.235 81.9118 44.2 82.0318 44.2H83.2618C83.3418 44.2 83.4118 44.235 83.4718 44.305C83.5418 44.365 83.5768 44.44 83.5768 44.53C83.5768 44.57 83.5718 44.615 83.5618 44.665L80.7418 51.625C80.7018 51.725 80.6418 51.815 80.5618 51.895C80.4818 51.965 80.3618 52 80.2018 52H79.0918ZM88.0268 52.15C86.9168 52.15 86.0368 51.83 85.3868 51.19C84.7368 50.55 84.3868 49.64 84.3368 48.46C84.3268 48.36 84.3218 48.235 84.3218 48.085C84.3218 47.925 84.3268 47.8 84.3368 47.71C84.3768 46.96 84.5468 46.31 84.8468 45.76C85.1568 45.21 85.5818 44.79 86.1218 44.5C86.6618 44.2 87.2968 44.05 88.0268 44.05C88.8368 44.05 89.5168 44.22 90.0668 44.56C90.6168 44.89 91.0318 45.355 91.3118 45.955C91.5918 46.545 91.7318 47.23 91.7318 48.01V48.325C91.7318 48.425 91.6968 48.51 91.6268 48.58C91.5568 48.65 91.4668 48.685 91.3568 48.685H86.3768C86.3768 48.685 86.3768 48.7 86.3768 48.73C86.3768 48.76 86.3768 48.785 86.3768 48.805C86.3868 49.155 86.4518 49.48 86.5718 49.78C86.7018 50.07 86.8868 50.305 87.1268 50.485C87.3768 50.665 87.6718 50.755 88.0118 50.755C88.2918 50.755 88.5268 50.715 88.7168 50.635C88.9068 50.545 89.0618 50.445 89.1818 50.335C89.3018 50.225 89.3868 50.135 89.4368 50.065C89.5268 49.945 89.5968 49.875 89.6468 49.855C89.7068 49.825 89.7918 49.81 89.9018 49.81H91.1918C91.2918 49.81 91.3718 49.84 91.4318 49.9C91.5018 49.96 91.5318 50.035 91.5218 50.125C91.5118 50.285 91.4268 50.48 91.2668 50.71C91.1168 50.94 90.8968 51.165 90.6068 51.385C90.3168 51.605 89.9518 51.79 89.5118 51.94C89.0818 52.08 88.5868 52.15 88.0268 52.15ZM86.3768 47.425H89.6918V47.38C89.6918 46.99 89.6268 46.65 89.4968 46.36C89.3668 46.07 89.1768 45.84 88.9268 45.67C88.6768 45.5 88.3768 45.415 88.0268 45.415C87.6768 45.415 87.3768 45.5 87.1268 45.67C86.8768 45.84 86.6868 46.07 86.5568 46.36C86.4368 46.65 86.3768 46.99 86.3768 47.38V47.425Z" fill="black"/>
</g>
<defs>
<clipPath id="clip0_1_2">
<rect width="100" height="100" fill="white"/>
</clipPath>
</defs>
</svg>
