<svg width="100" height="100" viewBox="0 0 100 100" fill="none" xmlns="http://www.w3.org/2000/svg">
<g clip-path="url(#clip0_1_2)">
<rect width="100" height="100" fill="white"/>
<path d="M21.8669 52C21.7669 52 21.6819 51.965 21.6119 51.895C21.5419 51.825 21.5069 51.74 21.5069 51.64V41.875C21.5069 41.765 21.5419 41.675 21.6119 41.605C21.6819 41.535 21.7669 41.5 21.8669 41.5H26.2169C27.0269 41.5 27.6869 41.625 28.1969 41.875C28.7069 42.115 29.0819 42.45 29.3219 42.88C29.5719 43.31 29.6969 43.81 29.6969 44.38C29.6969 44.76 29.6269 45.095 29.4869 45.385C29.3569 45.665 29.1919 45.895 28.9919 46.075C28.8019 46.255 28.6119 46.395 28.4219 46.495C28.8119 46.675 29.1569 46.975 29.4569 47.395C29.7569 47.815 29.9069 48.315 29.9069 48.895C29.9069 49.495 29.7719 50.03 29.5019 50.5C29.2319 50.97 28.8319 51.34 28.3019 51.61C27.7719 51.87 27.1169 52 26.3369 52H21.8669ZM23.5919 50.41H26.0969C26.6369 50.41 27.0469 50.265 27.3269 49.975C27.6069 49.675 27.7469 49.315 27.7469 48.895C27.7469 48.455 27.6019 48.09 27.3119 47.8C27.0319 47.51 26.6269 47.365 26.0969 47.365H23.5919V50.41ZM23.5919 45.805H25.9469C26.4769 45.805 26.8719 45.68 27.1319 45.43C27.4019 45.17 27.5369 44.835 27.5369 44.425C27.5369 44.005 27.4019 43.68 27.1319 43.45C26.8719 43.21 26.4769 43.09 25.9469 43.09H23.5919V45.805ZM33.8751 52.15C33.3551 52.15 32.8851 52.05 32.4651 51.85C32.0451 51.64 31.7101 51.365 31.4601 51.025C31.2201 50.675 31.1001 50.285 31.1001 49.855C31.1001 49.155 31.3801 48.6 31.9401 48.19C32.5101 47.77 33.2601 47.49 34.1901 47.35L36.2451 47.05V46.735C36.2451 46.315 36.1401 45.99 35.9301 45.76C35.7201 45.53 35.3601 45.415 34.8501 45.415C34.4901 45.415 34.1951 45.49 33.9651 45.64C33.7451 45.78 33.5801 45.97 33.4701 46.21C33.3901 46.34 33.2751 46.405 33.1251 46.405H31.9401C31.8301 46.405 31.7451 46.375 31.6851 46.315C31.6351 46.255 31.6101 46.175 31.6101 46.075C31.6201 45.915 31.6851 45.72 31.8051 45.49C31.9251 45.26 32.1151 45.04 32.3751 44.83C32.6351 44.61 32.9701 44.425 33.3801 44.275C33.7901 44.125 34.2851 44.05 34.8651 44.05C35.4951 44.05 36.0251 44.13 36.4551 44.29C36.8951 44.44 37.2451 44.645 37.5051 44.905C37.7651 45.165 37.9551 45.47 38.0751 45.82C38.1951 46.17 38.2551 46.54 38.2551 46.93V51.64C38.2551 51.74 38.2201 51.825 38.1501 51.895C38.0801 51.965 37.9951 52 37.8951 52H36.6801C36.5701 52 36.4801 51.965 36.4101 51.895C36.3501 51.825 36.3201 51.74 36.3201 51.64V51.055C36.1901 51.245 36.0151 51.425 35.7951 51.595C35.5751 51.755 35.3051 51.89 34.9851 52C34.6751 52.1 34.3051 52.15 33.8751 52.15ZM34.3851 50.725C34.7351 50.725 35.0501 50.65 35.3301 50.5C35.6201 50.35 35.8451 50.12 36.0051 49.81C36.1751 49.49 36.2601 49.09 36.2601 48.61V48.295L34.7601 48.535C34.1701 48.625 33.7301 48.77 33.4401 48.97C33.1501 49.17 33.0051 49.415 33.0051 49.705C33.0051 49.925 33.0701 50.115 33.2001 50.275C33.3401 50.425 33.5151 50.54 33.7251 50.62C33.9351 50.69 34.1551 50.725 34.3851 50.725ZM40.5395 52C40.4395 52 40.3545 51.965 40.2845 51.895C40.2145 51.825 40.1795 51.74 40.1795 51.64V44.56C40.1795 44.46 40.2145 44.375 40.2845 44.305C40.3545 44.235 40.4395 44.2 40.5395 44.2H41.7695C41.8695 44.2 41.9545 44.235 42.0245 44.305C42.0945 44.375 42.1295 44.46 42.1295 44.56V45.175C42.3895 44.855 42.7195 44.59 43.1195 44.38C43.5295 44.16 44.0345 44.05 44.6345 44.05C45.2445 44.05 45.7745 44.19 46.2245 44.47C46.6745 44.74 47.0195 45.125 47.2595 45.625C47.5095 46.125 47.6345 46.725 47.6345 47.425V51.64C47.6345 51.74 47.5995 51.825 47.5295 51.895C47.4595 51.965 47.3745 52 47.2745 52H45.9545C45.8545 52 45.7695 51.965 45.6995 51.895C45.6295 51.825 45.5945 51.74 45.5945 51.64V47.515C45.5945 46.935 45.4495 46.48 45.1595 46.15C44.8795 45.82 44.4695 45.655 43.9295 45.655C43.4095 45.655 42.9945 45.82 42.6845 46.15C42.3745 46.48 42.2195 46.935 42.2195 47.515V51.64C42.2195 51.74 42.1845 51.825 42.1145 51.895C42.0445 51.965 41.9595 52 41.8595 52H40.5395ZM49.9148 52C49.8148 52 49.7298 51.965 49.6598 51.895C49.5898 51.825 49.5548 51.74 49.5548 51.64V41.71C49.5548 41.61 49.5898 41.525 49.6598 41.455C49.7298 41.385 49.8148 41.35 49.9148 41.35H51.1298C51.2398 41.35 51.3248 41.385 51.3848 41.455C51.4548 41.525 51.4898 41.61 51.4898 41.71V46.84L54.0098 44.455C54.0998 44.375 54.1798 44.315 54.2498 44.275C54.3198 44.225 54.4248 44.2 54.5648 44.2H55.9598C56.0598 44.2 56.1398 44.23 56.1998 44.29C56.2598 44.35 56.2898 44.43 56.2898 44.53C56.2898 44.57 56.2798 44.615 56.2598 44.665C56.2398 44.715 56.1998 44.76 56.1398 44.8L53.0498 47.695L56.5148 51.415C56.6148 51.515 56.6648 51.6 56.6648 51.67C56.6648 51.77 56.6298 51.85 56.5598 51.91C56.4998 51.97 56.4248 52 56.3348 52H54.9098C54.7598 52 54.6498 51.98 54.5798 51.94C54.5198 51.89 54.4448 51.825 54.3548 51.745L51.4898 48.73V51.64C51.4898 51.74 51.4548 51.825 51.3848 51.895C51.3248 51.965 51.2398 52 51.1298 52H49.9148ZM58.1469 52C58.0469 52 57.9619 51.965 57.8919 51.895C57.8219 51.825 57.7869 51.74 57.7869 51.64V44.56C57.7869 44.46 57.8219 44.375 57.8919 44.305C57.9619 44.235 58.0469 44.2 58.1469 44.2H59.3919C59.5019 44.2 59.5869 44.235 59.6469 44.305C59.7169 44.375 59.7519 44.46 59.7519 44.56V51.64C59.7519 51.74 59.7169 51.825 59.6469 51.895C59.5869 51.965 59.5019 52 59.3919 52H58.1469ZM58.0869 42.91C57.9769 42.91 57.8869 42.88 57.8169 42.82C57.7569 42.75 57.7269 42.66 57.7269 42.55V41.47C57.7269 41.37 57.7569 41.285 57.8169 41.215C57.8869 41.145 57.9769 41.11 58.0869 41.11H59.4519C59.5619 41.11 59.6519 41.145 59.7219 41.215C59.7919 41.285 59.8269 41.37 59.8269 41.47V42.55C59.8269 42.66 59.7919 42.75 59.7219 42.82C59.6519 42.88 59.5619 42.91 59.4519 42.91H58.0869ZM62.4096 52C62.3096 52 62.2246 51.965 62.1546 51.895C62.0846 51.825 62.0496 51.74 62.0496 51.64V44.56C62.0496 44.46 62.0846 44.375 62.1546 44.305C62.2246 44.235 62.3096 44.2 62.4096 44.2H63.6396C63.7396 44.2 63.8246 44.235 63.8946 44.305C63.9646 44.375 63.9996 44.46 63.9996 44.56V45.175C64.2596 44.855 64.5896 44.59 64.9896 44.38C65.3996 44.16 65.9046 44.05 66.5046 44.05C67.1146 44.05 67.6446 44.19 68.0946 44.47C68.5446 44.74 68.8896 45.125 69.1296 45.625C69.3796 46.125 69.5046 46.725 69.5046 47.425V51.64C69.5046 51.74 69.4696 51.825 69.3996 51.895C69.3296 51.965 69.2446 52 69.1446 52H67.8246C67.7246 52 67.6396 51.965 67.5696 51.895C67.4996 51.825 67.4646 51.74 67.4646 51.64V47.515C67.4646 46.935 67.3196 46.48 67.0296 46.15C66.7496 45.82 66.3396 45.655 65.7996 45.655C65.2796 45.655 64.8646 45.82 64.5546 46.15C64.2446 46.48 64.0896 46.935 64.0896 47.515V51.64C64.0896 51.74 64.0546 51.825 63.9846 51.895C63.9146 51.965 63.8296 52 63.7296 52H62.4096ZM74.9349 55.3C74.2049 55.3 73.6049 55.205 73.1349 55.015C72.6649 54.825 72.2949 54.595 72.0249 54.325C71.7549 54.055 71.5599 53.785 71.4399 53.515C71.3299 53.255 71.2699 53.05 71.2599 52.9C71.2499 52.8 71.2799 52.71 71.3499 52.63C71.4299 52.56 71.5199 52.525 71.6199 52.525H72.9249C73.0249 52.525 73.1049 52.545 73.1649 52.585C73.2249 52.635 73.2749 52.72 73.3149 52.84C73.3749 52.97 73.4549 53.11 73.5549 53.26C73.6549 53.41 73.8049 53.535 74.0049 53.635C74.2149 53.745 74.4999 53.8 74.8599 53.8C75.2399 53.8 75.5599 53.745 75.8199 53.635C76.0799 53.525 76.2749 53.34 76.4049 53.08C76.5449 52.82 76.6149 52.46 76.6149 52V50.98C76.3749 51.27 76.0649 51.505 75.6849 51.685C75.3149 51.865 74.8549 51.955 74.3049 51.955C73.7649 51.955 73.2999 51.87 72.9099 51.7C72.5199 51.52 72.1949 51.275 71.9349 50.965C71.6749 50.645 71.4749 50.27 71.3349 49.84C71.2049 49.41 71.1299 48.935 71.1099 48.415C71.0999 48.145 71.0999 47.875 71.1099 47.605C71.1299 47.105 71.2049 46.64 71.3349 46.21C71.4649 45.78 71.6599 45.405 71.9199 45.085C72.1899 44.755 72.5199 44.5 72.9099 44.32C73.2999 44.14 73.7649 44.05 74.3049 44.05C74.8749 44.05 75.3549 44.16 75.7449 44.38C76.1349 44.59 76.4549 44.855 76.7049 45.175V44.575C76.7049 44.465 76.7399 44.375 76.8099 44.305C76.8799 44.235 76.9649 44.2 77.0649 44.2H78.2799C78.3799 44.2 78.4649 44.235 78.5349 44.305C78.6049 44.375 78.6399 44.465 78.6399 44.575L78.6549 51.805C78.6549 52.525 78.5199 53.145 78.2499 53.665C77.9799 54.185 77.5699 54.585 77.0199 54.865C76.4799 55.155 75.7849 55.3 74.9349 55.3ZM74.8599 50.365C75.2699 50.365 75.5999 50.275 75.8499 50.095C76.0999 49.915 76.2849 49.68 76.4049 49.39C76.5249 49.1 76.5949 48.805 76.6149 48.505C76.6249 48.375 76.6299 48.21 76.6299 48.01C76.6299 47.81 76.6249 47.65 76.6149 47.53C76.5949 47.22 76.5249 46.925 76.4049 46.645C76.2849 46.355 76.0999 46.12 75.8499 45.94C75.5999 45.75 75.2699 45.655 74.8599 45.655C74.4499 45.655 74.1199 45.75 73.8699 45.94C73.6199 46.12 73.4399 46.36 73.3299 46.66C73.2299 46.96 73.1699 47.29 73.1499 47.65C73.1299 47.89 73.1299 48.135 73.1499 48.385C73.1699 48.735 73.2299 49.065 73.3299 49.375C73.4399 49.675 73.6199 49.915 73.8699 50.095C74.1199 50.275 74.4499 50.365 74.8599 50.365Z" fill="black"/>
</g>
<defs>
<clipPath id="clip0_1_2">
<rect width="100" height="100" fill="white"/>
</clipPath>
</defs>
</svg>
