<svg width="100" height="100" viewBox="0 0 100 100" fill="none" xmlns="http://www.w3.org/2000/svg">
<g clip-path="url(#clip0_1_2)">
<rect width="100" height="100" fill="white"/>
<path d="M23.6467 52C23.5467 52 23.4617 51.965 23.3917 51.895C23.3217 51.825 23.2867 51.74 23.2867 51.64V41.875C23.2867 41.765 23.3217 41.675 23.3917 41.605C23.4617 41.535 23.5467 41.5 23.6467 41.5H30.1567C30.2667 41.5 30.3567 41.535 30.4267 41.605C30.4967 41.675 30.5317 41.765 30.5317 41.875V42.925C30.5317 43.035 30.4967 43.125 30.4267 43.195C30.3567 43.255 30.2667 43.285 30.1567 43.285H25.3417V46.135H29.8567C29.9667 46.135 30.0567 46.17 30.1267 46.24C30.1967 46.31 30.2317 46.4 30.2317 46.51V47.56C30.2317 47.66 30.1967 47.745 30.1267 47.815C30.0567 47.885 29.9667 47.92 29.8567 47.92H25.3417V51.64C25.3417 51.74 25.3067 51.825 25.2367 51.895C25.1667 51.965 25.0767 52 24.9667 52H23.6467ZM32.6073 52C32.5073 52 32.4223 51.965 32.3523 51.895C32.2823 51.825 32.2473 51.74 32.2473 51.64V44.56C32.2473 44.46 32.2823 44.375 32.3523 44.305C32.4223 44.235 32.5073 44.2 32.6073 44.2H33.8523C33.9623 44.2 34.0473 44.235 34.1073 44.305C34.1773 44.375 34.2123 44.46 34.2123 44.56V51.64C34.2123 51.74 34.1773 51.825 34.1073 51.895C34.0473 51.965 33.9623 52 33.8523 52H32.6073ZM32.5473 42.91C32.4373 42.91 32.3473 42.88 32.2773 42.82C32.2173 42.75 32.1873 42.66 32.1873 42.55V41.47C32.1873 41.37 32.2173 41.285 32.2773 41.215C32.3473 41.145 32.4373 41.11 32.5473 41.11H33.9123C34.0223 41.11 34.1123 41.145 34.1823 41.215C34.2523 41.285 34.2873 41.37 34.2873 41.47V42.55C34.2873 42.66 34.2523 42.75 34.1823 42.82C34.1123 42.88 34.0223 42.91 33.9123 42.91H32.5473ZM36.87 52C36.77 52 36.685 51.965 36.615 51.895C36.545 51.825 36.51 51.74 36.51 51.64V44.56C36.51 44.46 36.545 44.375 36.615 44.305C36.685 44.235 36.77 44.2 36.87 44.2H38.1C38.2 44.2 38.285 44.235 38.355 44.305C38.425 44.375 38.46 44.46 38.46 44.56V45.175C38.72 44.855 39.05 44.59 39.45 44.38C39.86 44.16 40.365 44.05 40.965 44.05C41.575 44.05 42.105 44.19 42.555 44.47C43.005 44.74 43.35 45.125 43.59 45.625C43.84 46.125 43.965 46.725 43.965 47.425V51.64C43.965 51.74 43.93 51.825 43.86 51.895C43.79 51.965 43.705 52 43.605 52H42.285C42.185 52 42.1 51.965 42.03 51.895C41.96 51.825 41.925 51.74 41.925 51.64V47.515C41.925 46.935 41.78 46.48 41.49 46.15C41.21 45.82 40.8 45.655 40.26 45.655C39.74 45.655 39.325 45.82 39.015 46.15C38.705 46.48 38.55 46.935 38.55 47.515V51.64C38.55 51.74 38.515 51.825 38.445 51.895C38.375 51.965 38.29 52 38.19 52H36.87ZM49.3075 52C48.7075 52 48.2025 51.895 47.7925 51.685C47.3825 51.475 47.0775 51.165 46.8775 50.755C46.6775 50.335 46.5775 49.815 46.5775 49.195V45.79H45.3925C45.2925 45.79 45.2075 45.755 45.1375 45.685C45.0675 45.615 45.0325 45.53 45.0325 45.43V44.56C45.0325 44.46 45.0675 44.375 45.1375 44.305C45.2075 44.235 45.2925 44.2 45.3925 44.2H46.5775V41.71C46.5775 41.61 46.6075 41.525 46.6675 41.455C46.7375 41.385 46.8275 41.35 46.9375 41.35H48.1525C48.2525 41.35 48.3375 41.385 48.4075 41.455C48.4775 41.525 48.5125 41.61 48.5125 41.71V44.2H50.3875C50.4875 44.2 50.5725 44.235 50.6425 44.305C50.7125 44.375 50.7475 44.46 50.7475 44.56V45.43C50.7475 45.53 50.7125 45.615 50.6425 45.685C50.5725 45.755 50.4875 45.79 50.3875 45.79H48.5125V49.045C48.5125 49.455 48.5825 49.775 48.7225 50.005C48.8725 50.235 49.1275 50.35 49.4875 50.35H50.5225C50.6225 50.35 50.7075 50.385 50.7775 50.455C50.8475 50.525 50.8825 50.61 50.8825 50.71V51.64C50.8825 51.74 50.8475 51.825 50.7775 51.895C50.7075 51.965 50.6225 52 50.5225 52H49.3075ZM55.5731 52.15C54.4631 52.15 53.5831 51.83 52.9331 51.19C52.2831 50.55 51.9331 49.64 51.8831 48.46C51.8731 48.36 51.8681 48.235 51.8681 48.085C51.8681 47.925 51.8731 47.8 51.8831 47.71C51.9231 46.96 52.0931 46.31 52.3931 45.76C52.7031 45.21 53.1281 44.79 53.6681 44.5C54.2081 44.2 54.8431 44.05 55.5731 44.05C56.3831 44.05 57.0631 44.22 57.6131 44.56C58.1631 44.89 58.5781 45.355 58.8581 45.955C59.1381 46.545 59.2781 47.23 59.2781 48.01V48.325C59.2781 48.425 59.2431 48.51 59.1731 48.58C59.1031 48.65 59.0131 48.685 58.9031 48.685H53.9231C53.9231 48.685 53.9231 48.7 53.9231 48.73C53.9231 48.76 53.9231 48.785 53.9231 48.805C53.9331 49.155 53.9981 49.48 54.1181 49.78C54.2481 50.07 54.4331 50.305 54.6731 50.485C54.9231 50.665 55.2181 50.755 55.5581 50.755C55.8381 50.755 56.0731 50.715 56.2631 50.635C56.4531 50.545 56.6081 50.445 56.7281 50.335C56.8481 50.225 56.9331 50.135 56.9831 50.065C57.0731 49.945 57.1431 49.875 57.1931 49.855C57.2531 49.825 57.3381 49.81 57.4481 49.81H58.7381C58.8381 49.81 58.9181 49.84 58.9781 49.9C59.0481 49.96 59.0781 50.035 59.0681 50.125C59.0581 50.285 58.9731 50.48 58.8131 50.71C58.6631 50.94 58.4431 51.165 58.1531 51.385C57.8631 51.605 57.4981 51.79 57.0581 51.94C56.6281 52.08 56.1331 52.15 55.5731 52.15ZM53.9231 47.425H57.2381V47.38C57.2381 46.99 57.1731 46.65 57.0431 46.36C56.9131 46.07 56.7231 45.84 56.4731 45.67C56.2231 45.5 55.9231 45.415 55.5731 45.415C55.2231 45.415 54.9231 45.5 54.6731 45.67C54.4231 45.84 54.2331 46.07 54.1031 46.36C53.9831 46.65 53.9231 46.99 53.9231 47.38V47.425ZM64.2454 52.15C63.5254 52.15 62.8904 52.015 62.3404 51.745C61.8004 51.475 61.3754 51.085 61.0654 50.575C60.7654 50.055 60.6004 49.43 60.5704 48.7C60.5604 48.55 60.5554 48.355 60.5554 48.115C60.5554 47.865 60.5604 47.66 60.5704 47.5C60.6004 46.77 60.7654 46.15 61.0654 45.64C61.3754 45.12 61.8004 44.725 62.3404 44.455C62.8904 44.185 63.5254 44.05 64.2454 44.05C64.8854 44.05 65.4304 44.14 65.8804 44.32C66.3304 44.5 66.7004 44.725 66.9904 44.995C67.2804 45.265 67.4954 45.55 67.6354 45.85C67.7854 46.14 67.8654 46.405 67.8754 46.645C67.8854 46.755 67.8504 46.845 67.7704 46.915C67.7004 46.975 67.6154 47.005 67.5154 47.005H66.1954C66.0954 47.005 66.0154 46.98 65.9554 46.93C65.9054 46.88 65.8554 46.805 65.8054 46.705C65.6554 46.305 65.4554 46.025 65.2054 45.865C64.9654 45.695 64.6554 45.61 64.2754 45.61C63.7754 45.61 63.3754 45.77 63.0754 46.09C62.7854 46.4 62.6304 46.895 62.6104 47.575C62.5904 47.955 62.5904 48.305 62.6104 48.625C62.6304 49.315 62.7854 49.815 63.0754 50.125C63.3754 50.435 63.7754 50.59 64.2754 50.59C64.6654 50.59 64.9804 50.51 65.2204 50.35C65.4604 50.18 65.6554 49.895 65.8054 49.495C65.8554 49.395 65.9054 49.32 65.9554 49.27C66.0154 49.22 66.0954 49.195 66.1954 49.195H67.5154C67.6154 49.195 67.7004 49.23 67.7704 49.3C67.8504 49.36 67.8854 49.445 67.8754 49.555C67.8654 49.735 67.8154 49.94 67.7254 50.17C67.6454 50.39 67.5104 50.62 67.3204 50.86C67.1404 51.09 66.9104 51.305 66.6304 51.505C66.3504 51.695 66.0104 51.85 65.6104 51.97C65.2204 52.09 64.7654 52.15 64.2454 52.15ZM69.8147 52C69.7147 52 69.6297 51.965 69.5597 51.895C69.4897 51.825 69.4547 51.74 69.4547 51.64V41.71C69.4547 41.61 69.4897 41.525 69.5597 41.455C69.6297 41.385 69.7147 41.35 69.8147 41.35H71.1497C71.2597 41.35 71.3447 41.385 71.4047 41.455C71.4747 41.525 71.5097 41.61 71.5097 41.71V45.13C71.7797 44.81 72.1097 44.55 72.4997 44.35C72.8897 44.15 73.3697 44.05 73.9397 44.05C74.5497 44.05 75.0797 44.19 75.5297 44.47C75.9897 44.74 76.3447 45.125 76.5947 45.625C76.8447 46.125 76.9697 46.725 76.9697 47.425V51.64C76.9697 51.74 76.9347 51.825 76.8647 51.895C76.7947 51.965 76.7097 52 76.6097 52H75.2597C75.1597 52 75.0747 51.965 75.0047 51.895C74.9347 51.825 74.8997 51.74 74.8997 51.64V47.515C74.8997 46.935 74.7547 46.48 74.4647 46.15C74.1847 45.82 73.7747 45.655 73.2347 45.655C72.7147 45.655 72.2947 45.82 71.9747 46.15C71.6647 46.48 71.5097 46.935 71.5097 47.515V51.64C71.5097 51.74 71.4747 51.825 71.4047 51.895C71.3447 51.965 71.2597 52 71.1497 52H69.8147Z" fill="black"/>
</g>
<defs>
<clipPath id="clip0_1_2">
<rect width="100" height="100" fill="white"/>
</clipPath>
</defs>
</svg>
