<svg width="100" height="70" viewBox="0 0 100 70" fill="none" xmlns="http://www.w3.org/2000/svg">
<g clip-path="url(#clip0_1_6)">
<rect width="100" height="70" fill="white"/>
<g clip-path="url(#clip1_1_6)">
<path d="M77.8486 20.2653V50.2755L50.0757 65.2806L22.3027 50.2755V20.2653L50.0757 5.26022L77.8486 20.2653Z" fill="white"/>
<path d="M50 65.5405L49.8941 65.4828L22 50.4127V20.1351L22.1194 20.0718L50 5L50.1059 5.05774L78 20.1351V50.4205L50 65.5405ZM22.4541 50.1375L50 65.0198L77.5459 50.1375V20.4031L50 5.52076L22.4541 20.4031V50.1375Z" fill="#6A797D"/>
<path d="M76.4865 21.0814V49.4592L50 63.6487L23.5135 49.4592V21.0814L50 6.8919L76.4865 21.0814Z" fill="#6A797D"/>
<path d="M76.4865 26.9459H23.5135V43.5946H76.4865V26.9459Z" fill="#17313B"/>
<path d="M73.9135 22.216V48.3247L50.0757 61.3785L26.2379 48.3247V22.216L50.0757 9.16225L73.9135 22.216Z" fill="white" stroke="#17313B" stroke-width="0.112112" stroke-miterlimit="10"/>
<path d="M75.7297 28.4596H24.2703V42.0813H75.7297V28.4596Z" fill="#17313B"/>
<path d="M29.9459 43.5946H70.054" stroke="#17313B" stroke-width="0.0560561" stroke-miterlimit="10"/>
<path d="M29.9459 26.9459H70.054" stroke="#17313B" stroke-width="0.0560561" stroke-miterlimit="10"/>
<path d="M44.5648 31.6378H43.2026V38.7513H44.5648V31.6378Z" fill="white"/>
<path d="M48.954 36.6323C48.954 37.74 47.9052 37.828 47.6115 37.828C46.876 37.828 46.6838 37.18 46.6838 36.7899V34.0594H45.6243V36.7837C45.6243 37.4709 45.8407 38.0382 46.2432 38.4155C46.6395 38.7653 47.1541 38.9508 47.6827 38.9329C48.1334 38.9217 48.5728 38.7888 48.954 38.5483V38.7513H50.1648V34.0594H48.954V36.6323Z" fill="white"/>
<path d="M52.7378 32.3946H51.3756V34.0595H50.6189V34.9676H51.3756V38.7514H52.7378V34.9676H53.6459V34.0595H52.7378V32.3946Z" fill="white"/>
<path d="M57.5676 37.447C57.2811 37.6807 56.9218 37.8057 56.5518 37.7996C55.6891 37.7996 55.0563 37.2076 55.0563 36.3948C55.0563 35.582 55.6617 35.0158 56.5518 35.0158C56.9229 35.0091 57.2845 35.1319 57.5749 35.3623L57.7627 35.5136L58.5979 34.7327L58.3888 34.5573C57.8703 34.1296 57.2161 33.8992 56.544 33.9082C54.9957 33.9082 53.8712 34.9542 53.8712 36.3903C53.8712 37.8265 55.0232 38.9028 56.544 38.9028C57.2195 38.9134 57.8765 38.6808 58.395 38.2475L58.5962 38.0703L57.7486 37.2895L57.567 37.447H57.5676Z" fill="white"/>
<path d="M63.051 34.5012C62.6474 34.1519 62.1272 33.9675 61.5936 33.9849C61.135 33.9793 60.686 34.1133 60.3054 34.3694V31.6378H59.0946V38.7513H60.3054V36.2843C60.3054 35.1767 61.2785 35.087 61.5723 35.087C62.3077 35.087 62.4243 35.7361 62.4243 36.1268V38.7513H63.6351V36.133C63.6351 35.4457 63.4597 34.8796 63.051 34.5012Z" fill="white"/>
<path d="M41.7087 37.1C41.2278 37.5552 40.5882 37.8063 39.9256 37.799C38.5455 37.799 37.5421 36.785 37.5421 35.3925C37.5421 34.0001 38.5455 32.9799 39.9256 32.9799C40.5842 32.9765 41.2199 33.2249 41.7026 33.6733L41.8904 33.8504L42.7183 33.0757L42.5367 32.8986C41.8321 32.2321 40.8954 31.8666 39.9256 31.8784C37.893 31.8784 36.3643 33.3919 36.3643 35.3987C36.3643 37.4055 37.8992 38.9028 39.9256 38.9028C40.8987 38.914 41.8382 38.5451 42.544 37.8753L42.7256 37.6998L41.9038 36.9128L41.7087 37.1006V37.1Z" fill="white"/>
<path d="M47.1322 13.098V12.8615H48.7834V13.098H48.0911V15.063H47.8245V13.098H47.1322ZM50.9606 13.9623C50.9606 14.1945 50.9187 14.3951 50.8349 14.5642C50.751 14.7334 50.636 14.8638 50.4898 14.9555C50.3436 15.0473 50.1767 15.0931 49.9889 15.0931C49.8011 15.0931 49.6342 15.0473 49.488 14.9555C49.3418 14.8638 49.2268 14.7334 49.1429 14.5642C49.0591 14.3951 49.0172 14.1945 49.0172 13.9623C49.0172 13.7301 49.0591 13.5294 49.1429 13.3603C49.2268 13.1912 49.3418 13.0608 49.488 12.969C49.6342 12.8773 49.8011 12.8314 49.9889 12.8314C50.1767 12.8314 50.3436 12.8773 50.4898 12.969C50.636 13.0608 50.751 13.1912 50.8349 13.3603C50.9187 13.5294 50.9606 13.7301 50.9606 13.9623ZM50.7027 13.9623C50.7027 13.7717 50.6708 13.6108 50.607 13.4796C50.5439 13.3485 50.4583 13.2492 50.3501 13.1819C50.2426 13.1145 50.1222 13.0808 49.9889 13.0808C49.8556 13.0808 49.7349 13.1145 49.6266 13.1819C49.5191 13.2492 49.4335 13.3485 49.3697 13.4796C49.3067 13.6108 49.2751 13.7717 49.2751 13.9623C49.2751 14.1529 49.3067 14.3138 49.3697 14.4449C49.4335 14.5761 49.5191 14.6753 49.6266 14.7427C49.7349 14.81 49.8556 14.8437 49.9889 14.8437C50.1222 14.8437 50.2426 14.81 50.3501 14.7427C50.4583 14.6753 50.5439 14.5761 50.607 14.4449C50.6708 14.3138 50.7027 14.1529 50.7027 13.9623ZM51.4089 15.063V12.8615H52.1527C52.3255 12.8615 52.4666 12.8927 52.5763 12.9551C52.6866 13.0167 52.7683 13.1002 52.8214 13.2055C52.8744 13.3109 52.9009 13.4284 52.9009 13.5581C52.9009 13.6878 52.8744 13.8057 52.8214 13.9118C52.769 14.0178 52.6881 14.1024 52.5784 14.1654C52.4688 14.2278 52.3283 14.259 52.157 14.259H51.6239V14.0225H52.1484C52.2667 14.0225 52.3616 14.0021 52.4333 13.9612C52.505 13.9204 52.5569 13.8652 52.5892 13.7957C52.6221 13.7254 52.6386 13.6462 52.6386 13.5581C52.6386 13.47 52.6221 13.3911 52.5892 13.3216C52.5569 13.2521 52.5046 13.1976 52.4322 13.1582C52.3599 13.1181 52.2638 13.098 52.1441 13.098H51.6755V15.063H51.4089Z" fill="#17313B"/>
<path d="M44.8658 20.1083H44.1864V17.9068H44.8959C45.1094 17.9068 45.2922 17.9509 45.4441 18.039C45.596 18.1265 45.7125 18.2522 45.7934 18.4163C45.8744 18.5797 45.9149 18.7754 45.9149 19.0033C45.9149 19.2326 45.8741 19.43 45.7924 19.5955C45.7107 19.7604 45.5917 19.8872 45.4355 19.9761C45.2793 20.0642 45.0894 20.1083 44.8658 20.1083ZM44.453 19.8718H44.8486C45.0306 19.8718 45.1815 19.8367 45.3011 19.7665C45.4208 19.6962 45.51 19.5963 45.5688 19.4666C45.6275 19.3368 45.6569 19.1824 45.6569 19.0033C45.6569 18.8255 45.6279 18.6725 45.5699 18.5443C45.5118 18.4153 45.4251 18.3164 45.3097 18.2476C45.1943 18.1781 45.0507 18.1433 44.8787 18.1433H44.453V19.8718ZM46.6287 17.9068V20.1083H46.3621V17.9068H46.6287ZM48.6681 18.5948C48.6445 18.5224 48.6133 18.4575 48.5746 18.4002C48.5366 18.3422 48.4911 18.2927 48.4381 18.2519C48.3858 18.211 48.3263 18.1799 48.2596 18.1584C48.193 18.1369 48.1199 18.1261 48.0403 18.1261C47.9099 18.1261 47.7913 18.1598 47.6845 18.2271C47.5778 18.2945 47.4928 18.3938 47.4298 18.5249C47.3667 18.656 47.3352 18.8169 47.3352 19.0076C47.3352 19.1982 47.3671 19.3591 47.4308 19.4902C47.4946 19.6213 47.581 19.7206 47.6899 19.788C47.7988 19.8553 47.9214 19.889 48.0575 19.889C48.1837 19.889 48.2947 19.8621 48.3908 19.8084C48.4875 19.7539 48.5628 19.6772 48.6165 19.5783C48.671 19.4787 48.6982 19.3616 48.6982 19.2268L48.7799 19.244H48.1177V19.0076H48.9562V19.244C48.9562 19.4253 48.9175 19.583 48.8401 19.717C48.7634 19.851 48.6574 19.9549 48.5219 20.0287C48.3872 20.1018 48.2324 20.1384 48.0575 20.1384C47.8626 20.1384 47.6913 20.0925 47.5437 20.0008C47.3968 19.9091 47.2821 19.7786 47.1997 19.6095C47.118 19.4404 47.0772 19.2397 47.0772 19.0076C47.0772 18.8334 47.1005 18.6768 47.1471 18.5378C47.1944 18.3981 47.261 18.2791 47.347 18.1809C47.433 18.0827 47.5348 18.0075 47.6523 17.9552C47.7698 17.9029 47.8992 17.8767 48.0403 17.8767C48.1564 17.8767 48.2646 17.8943 48.365 17.9294C48.466 17.9638 48.556 18.0129 48.6348 18.0767C48.7143 18.1397 48.7806 18.2153 48.8336 18.3035C48.8867 18.3909 48.9232 18.488 48.9433 18.5948H48.6681ZM49.6794 17.9068V20.1083H49.4128V17.9068H49.6794ZM50.0935 18.1433V17.9068H51.7446V18.1433H51.0523V20.1083H50.7857V18.1433H50.0935ZM51.9891 20.1083H51.7096L52.518 17.9068H52.7932L53.6015 20.1083H53.3221L52.6642 18.2551H52.647L51.9891 20.1083ZM52.0923 19.2483H53.2189V19.4848H52.0923V19.2483ZM53.9444 20.1083V17.9068H54.211V19.8718H55.2344V20.1083H53.9444Z" fill="#17313B"/>
<path d="M32.7606 22.9517H33.0788L33.827 24.7791H33.8528L34.6009 22.9517H34.9191V25.1532H34.6697V23.4806H34.6482L33.9603 25.1532H33.7195L33.0315 23.4806H33.01V25.1532H32.7606V22.9517ZM35.5439 25.1532H35.2644L36.0728 22.9517H36.348L37.1563 25.1532H36.8768L36.219 23.3H36.2018L35.5439 25.1532ZM35.6471 24.2932H36.7736V24.5297H35.6471V24.2932ZM37.4992 25.1532V22.9517H38.2431C38.4151 22.9517 38.5563 22.9811 38.6666 23.0398C38.777 23.0979 38.8587 23.1778 38.9117 23.2795C38.9647 23.3813 38.9912 23.497 38.9912 23.6267C38.9912 23.7565 38.9647 23.8715 38.9117 23.9718C38.8587 24.0721 38.7773 24.151 38.6677 24.2083C38.558 24.2649 38.4179 24.2932 38.2474 24.2932H37.6454V24.0524H38.2388C38.3563 24.0524 38.4509 24.0352 38.5226 24.0008C38.595 23.9664 38.6473 23.9177 38.6795 23.8546C38.7125 23.7909 38.729 23.7149 38.729 23.6267C38.729 23.5386 38.7125 23.4616 38.6795 23.3956C38.6466 23.3297 38.5939 23.2788 38.5215 23.243C38.4491 23.2064 38.3535 23.1882 38.2345 23.1882H37.7658V25.1532H37.4992ZM38.5355 24.1642L39.0772 25.1532H38.7677L38.2345 24.1642H38.5355ZM39.4355 25.1532V22.9517H39.7021V24.0438H39.7278L40.7168 22.9517H41.0651L40.1406 23.9449L41.0651 25.1532H40.7426L39.9772 24.1298L39.7021 24.4394V25.1532H39.4355ZM41.4101 25.1532V22.9517H42.7388V23.1882H41.6767V23.932H42.67V24.1685H41.6767V24.9167H42.756V25.1532H41.4101ZM43.0989 23.1882V22.9517H44.75V23.1882H44.0577V25.1532H43.7911V23.1882H43.0989ZM45.428 22.9517V25.1532H45.1614V22.9517H45.428ZM47.7082 22.9517V25.1532H47.4502L46.2506 23.4247H46.2291V25.1532H45.9625V22.9517H46.2205L47.4244 24.6845H47.4459V22.9517H47.7082ZM49.7465 23.6396C49.7229 23.5673 49.6917 23.5024 49.653 23.4451C49.615 23.387 49.5695 23.3376 49.5165 23.2967C49.4642 23.2559 49.4047 23.2247 49.3381 23.2032C49.2714 23.1817 49.1983 23.171 49.1188 23.171C48.9884 23.171 48.8698 23.2047 48.763 23.272C48.6562 23.3394 48.5713 23.4386 48.5082 23.5698C48.4452 23.7009 48.4136 23.8618 48.4136 24.0524C48.4136 24.243 48.4455 24.4039 48.5093 24.5351C48.5731 24.6662 48.6594 24.7655 48.7684 24.8328C48.8773 24.9002 48.9998 24.9339 49.136 24.9339C49.2621 24.9339 49.3732 24.907 49.4692 24.8533C49.566 24.7988 49.6412 24.7221 49.6949 24.6232C49.7494 24.5236 49.7766 24.4064 49.7766 24.2717L49.8583 24.2889H49.1962V24.0524H50.0346V24.2889C50.0346 24.4702 49.9959 24.6279 49.9185 24.7619C49.8419 24.8959 49.7358 24.9998 49.6004 25.0736C49.4656 25.1467 49.3108 25.1833 49.136 25.1833C48.9411 25.1833 48.7698 25.1374 48.6222 25.0457C48.4753 24.9539 48.3606 24.8235 48.2782 24.6544C48.1965 24.4853 48.1556 24.2846 48.1556 24.0524C48.1556 23.8783 48.1789 23.7217 48.2255 23.5827C48.2728 23.4429 48.3395 23.324 48.4254 23.2258C48.5114 23.1276 48.6132 23.0524 48.7307 23.0001C48.8483 22.9477 48.9776 22.9216 49.1188 22.9216C49.2349 22.9216 49.3431 22.9391 49.4434 22.9743C49.5445 23.0087 49.6344 23.0577 49.7132 23.1215C49.7928 23.1846 49.8591 23.2602 49.9121 23.3483C49.9651 23.4358 50.0017 23.5329 50.0217 23.6396H49.7465ZM53.1141 23.6396H52.8475C52.8317 23.563 52.8041 23.4956 52.7647 23.4376C52.726 23.3795 52.6787 23.3308 52.6228 23.2914C52.5676 23.2512 52.5064 23.2211 52.439 23.2011C52.3716 23.181 52.3014 23.171 52.2283 23.171C52.095 23.171 51.9743 23.2047 51.8661 23.272C51.7586 23.3394 51.6729 23.4386 51.6091 23.5698C51.5461 23.7009 51.5146 23.8618 51.5146 24.0524C51.5146 24.243 51.5461 24.4039 51.6091 24.5351C51.6729 24.6662 51.7586 24.7655 51.8661 24.8328C51.9743 24.9002 52.095 24.9339 52.2283 24.9339C52.3014 24.9339 52.3716 24.9238 52.439 24.9038C52.5064 24.8837 52.5676 24.854 52.6228 24.8146C52.6787 24.7744 52.726 24.7253 52.7647 24.6673C52.8041 24.6085 52.8317 24.5412 52.8475 24.4652H53.1141C53.094 24.5777 53.0574 24.6784 53.0044 24.7673C52.9514 24.8561 52.8855 24.9317 52.8066 24.9941C52.7278 25.0557 52.6393 25.1026 52.5411 25.1349C52.4437 25.1671 52.3394 25.1833 52.2283 25.1833C52.0406 25.1833 51.8736 25.1374 51.7274 25.0457C51.5812 24.9539 51.4662 24.8235 51.3823 24.6544C51.2985 24.4853 51.2566 24.2846 51.2566 24.0524C51.2566 23.8202 51.2985 23.6196 51.3823 23.4505C51.4662 23.2813 51.5812 23.1509 51.7274 23.0592C51.8736 22.9675 52.0406 22.9216 52.2283 22.9216C52.3394 22.9216 52.4437 22.9377 52.5411 22.97C52.6393 23.0022 52.7278 23.0495 52.8066 23.1119C52.8855 23.1735 52.9514 23.2487 53.0044 23.3376C53.0574 23.4257 53.094 23.5264 53.1141 23.6396ZM55.4023 24.0524C55.4023 24.2846 55.3604 24.4853 55.2766 24.6544C55.1927 24.8235 55.0777 24.9539 54.9315 25.0457C54.7853 25.1374 54.6183 25.1833 54.4306 25.1833C54.2428 25.1833 54.0759 25.1374 53.9297 25.0457C53.7835 24.9539 53.6685 24.8235 53.5846 24.6544C53.5008 24.4853 53.4588 24.2846 53.4588 24.0524C53.4588 23.8202 53.5008 23.6196 53.5846 23.4505C53.6685 23.2813 53.7835 23.1509 53.9297 23.0592C54.0759 22.9675 54.2428 22.9216 54.4306 22.9216C54.6183 22.9216 54.7853 22.9675 54.9315 23.0592C55.0777 23.1509 55.1927 23.2813 55.2766 23.4505C55.3604 23.6196 55.4023 23.8202 55.4023 24.0524ZM55.1444 24.0524C55.1444 23.8618 55.1125 23.7009 55.0487 23.5698C54.9856 23.4386 54.9 23.3394 54.7918 23.272C54.6843 23.2047 54.5639 23.171 54.4306 23.171C54.2973 23.171 54.1765 23.2047 54.0683 23.272C53.9608 23.3394 53.8752 23.4386 53.8114 23.5698C53.7484 23.7009 53.7168 23.8618 53.7168 24.0524C53.7168 24.243 53.7484 24.4039 53.8114 24.5351C53.8752 24.6662 53.9608 24.7655 54.0683 24.8328C54.1765 24.9002 54.2973 24.9339 54.4306 24.9339C54.5639 24.9339 54.6843 24.9002 54.7918 24.8328C54.9 24.7655 54.9856 24.6662 55.0487 24.5351C55.1125 24.4039 55.1444 24.243 55.1444 24.0524ZM55.8506 22.9517H56.1688L56.9169 24.7791H56.9427L57.6909 22.9517H58.0091V25.1532H57.7597V23.4806H57.7382L57.0502 25.1532H56.8094L56.1215 23.4806H56.1V25.1532H55.8506V22.9517ZM58.5436 25.1532V22.9517H59.2874C59.4601 22.9517 59.6013 22.9829 59.711 23.0452C59.8213 23.1068 59.903 23.1903 59.956 23.2957C60.0091 23.401 60.0356 23.5185 60.0356 23.6482C60.0356 23.778 60.0091 23.8958 59.956 24.0019C59.9037 24.108 59.8228 24.1925 59.7131 24.2556C59.6035 24.3179 59.463 24.3491 59.2917 24.3491H58.7586V24.1126H59.2831C59.4014 24.1126 59.4963 24.0922 59.568 24.0513C59.6397 24.0105 59.6916 23.9553 59.7239 23.8858C59.7568 23.8156 59.7733 23.7364 59.7733 23.6482C59.7733 23.5601 59.7568 23.4813 59.7239 23.4118C59.6916 23.3422 59.6393 23.2878 59.5669 23.2484C59.4945 23.2082 59.3985 23.1882 59.2788 23.1882H58.8102V25.1532H58.5436ZM60.3307 25.1532H60.0512L60.8595 22.9517H61.1347L61.9431 25.1532H61.6636L61.0057 23.3H60.9885L60.3307 25.1532ZM60.4339 24.2932H61.5604V24.5297H60.4339V24.2932ZM64.0317 22.9517V25.1532H63.7737L62.5741 23.4247H62.5526V25.1532H62.286V22.9517H62.544L63.7479 24.6845H63.7694V22.9517H64.0317ZM64.3759 22.9517H64.6812L65.2918 23.9793H65.3176L65.9281 22.9517H66.2334L65.438 24.2459V25.1532H65.1714V24.2459L64.3759 22.9517Z" fill="#17313B"/>
<path d="M46.1628 46.215V48.4164H45.8962V46.215H46.1628ZM48.443 46.215V48.4164H48.185L46.9854 46.6879H46.9639V48.4164H46.6973V46.215H46.9553L48.1592 47.9478H48.1807V46.215H48.443ZM49.6558 48.4164H48.9765V46.215H49.6859C49.8995 46.215 50.0822 46.259 50.2341 46.3472C50.3861 46.4346 50.5025 46.5604 50.5835 46.7245C50.6645 46.8879 50.705 47.0835 50.705 47.3114C50.705 47.5407 50.6641 47.7381 50.5824 47.9037C50.5007 48.0685 50.3818 48.1953 50.2255 48.2842C50.0693 48.3724 49.8794 48.4164 49.6558 48.4164ZM49.243 48.1799H49.6386C49.8206 48.1799 49.9715 48.1448 50.0912 48.0746C50.2108 48.0044 50.3001 47.9044 50.3588 47.7747C50.4176 47.645 50.447 47.4905 50.447 47.3114C50.447 47.1337 50.418 46.9807 50.3599 46.8524C50.3019 46.7234 50.2151 46.6245 50.0998 46.5557C49.9844 46.4862 49.8407 46.4514 49.6687 46.4514H49.243V48.1799ZM51.4187 46.215V48.4164H51.1521V46.215H51.4187ZM52.0435 48.4164H51.764L52.5724 46.215H52.8476L53.6559 48.4164H53.3765L52.7186 46.5632H52.7014L52.0435 48.4164ZM52.1467 47.5565H53.2733V47.793H52.1467V47.5565Z" fill="#17313B"/>
<path d="M46.3982 53.4615V53.2681L47.1249 52.4726C47.2102 52.3794 47.2804 52.2985 47.3356 52.2297C47.3908 52.1602 47.4316 52.0949 47.4581 52.034C47.4854 51.9724 47.499 51.9079 47.499 51.8405C47.499 51.7631 47.4803 51.6961 47.4431 51.6395C47.4065 51.5829 47.3564 51.5392 47.2926 51.5084C47.2288 51.4776 47.1571 51.4622 47.0776 51.4622C46.993 51.4622 46.9192 51.4797 46.8562 51.5148C46.7938 51.5492 46.7454 51.5976 46.711 51.66C46.6774 51.7223 46.6605 51.7954 46.6605 51.8792H46.4068C46.4068 51.7502 46.4366 51.637 46.4961 51.5396C46.5555 51.4421 46.6365 51.3661 46.739 51.3117C46.8422 51.2572 46.9579 51.23 47.0862 51.23C47.2152 51.23 47.3295 51.2572 47.4291 51.3117C47.5287 51.3661 47.6068 51.4396 47.6634 51.532C47.7201 51.6245 47.7484 51.7273 47.7484 51.8405C47.7484 51.9215 47.7337 52.0007 47.7043 52.0781C47.6756 52.1548 47.6255 52.2404 47.5538 52.335C47.4828 52.4289 47.3843 52.5436 47.2582 52.679L46.7637 53.2079V53.2251H47.7871V53.4615H46.3982ZM48.9491 53.4916C48.7871 53.4916 48.6492 53.4476 48.5352 53.3594C48.4213 53.2706 48.3342 53.1419 48.274 52.9735C48.2138 52.8044 48.1837 52.6002 48.1837 52.3608C48.1837 52.1229 48.2138 51.9197 48.274 51.7513C48.3349 51.5822 48.4223 51.4532 48.5363 51.3643C48.6509 51.2748 48.7885 51.23 48.9491 51.23C49.1096 51.23 49.2468 51.2748 49.3608 51.3643C49.4754 51.4532 49.5629 51.5822 49.6231 51.7513C49.684 51.9197 49.7144 52.1229 49.7144 52.3608C49.7144 52.6002 49.6843 52.8044 49.6241 52.9735C49.5639 53.1419 49.4769 53.2706 49.3629 53.3594C49.249 53.4476 49.111 53.4916 48.9491 53.4916ZM48.9491 53.2552C49.1096 53.2552 49.2343 53.1778 49.3231 53.023C49.412 52.8682 49.4564 52.6475 49.4564 52.3608C49.4564 52.1702 49.436 52.0079 49.3952 51.8739C49.355 51.7399 49.297 51.6377 49.221 51.5675C49.1458 51.4973 49.0551 51.4622 48.9491 51.4622C48.79 51.4622 48.6656 51.5406 48.5761 51.6976C48.4865 51.8538 48.4417 52.0749 48.4417 52.3608C48.4417 52.5514 48.4618 52.7134 48.5019 52.8467C48.542 52.98 48.5997 53.0814 48.675 53.1509C48.7509 53.2204 48.8423 53.2552 48.9491 53.2552ZM50.1229 53.4615V53.2681L50.8496 52.4726C50.9348 52.3794 51.0051 52.2985 51.0602 52.2297C51.1154 52.1602 51.1563 52.0949 51.1828 52.034C51.21 51.9724 51.2236 51.9079 51.2236 51.8405C51.2236 51.7631 51.205 51.6961 51.1677 51.6395C51.1312 51.5829 51.081 51.5392 51.0172 51.5084C50.9535 51.4776 50.8818 51.4622 50.8023 51.4622C50.7177 51.4622 50.6439 51.4797 50.5808 51.5148C50.5185 51.5492 50.4701 51.5976 50.4357 51.66C50.402 51.7223 50.3852 51.7954 50.3852 51.8792H50.1315C50.1315 51.7502 50.1612 51.637 50.2207 51.5396C50.2802 51.4421 50.3612 51.3661 50.4637 51.3117C50.5668 51.2572 50.6826 51.23 50.8109 51.23C50.9399 51.23 51.0542 51.2572 51.1538 51.3117C51.2534 51.3661 51.3315 51.4396 51.3881 51.532C51.4447 51.6245 51.473 51.7273 51.473 51.8405C51.473 51.9215 51.4583 52.0007 51.4289 52.0781C51.4003 52.1548 51.3501 52.2404 51.2785 52.335C51.2075 52.4289 51.109 52.5436 50.9828 52.679L50.4884 53.2079V53.2251H51.5117V53.4615H50.1229ZM52.6995 53.4916C52.5576 53.4916 52.4312 53.4673 52.3201 53.4186C52.2097 53.3698 52.1219 53.3021 52.0567 53.2154C51.9922 53.128 51.9571 53.0266 51.9514 52.9112H52.2223C52.228 52.9821 52.2524 53.0434 52.2953 53.095C52.3383 53.1459 52.3946 53.1853 52.4641 53.2132C52.5336 53.2412 52.6107 53.2552 52.6952 53.2552C52.7898 53.2552 52.8737 53.2387 52.9468 53.2057C53.0199 53.1727 53.0772 53.1269 53.1188 53.0681C53.1603 53.0094 53.1811 52.9413 53.1811 52.8639C53.1811 52.7829 53.161 52.7116 53.1209 52.65C53.0808 52.5876 53.022 52.5389 52.9446 52.5038C52.8672 52.4687 52.7726 52.4511 52.6608 52.4511H52.4845V52.2146H52.6608C52.7483 52.2146 52.8249 52.1989 52.8909 52.1673C52.9575 52.1358 53.0095 52.0914 53.0467 52.034C53.0847 51.9767 53.1037 51.9093 53.1037 51.8319C53.1037 51.7574 53.0872 51.6926 53.0543 51.6374C53.0213 51.5822 52.9747 51.5392 52.9145 51.5084C52.855 51.4776 52.7848 51.4622 52.7038 51.4622C52.6279 51.4622 52.5562 51.4761 52.4888 51.5041C52.4222 51.5313 52.3677 51.5711 52.3254 51.6234C52.2832 51.675 52.2602 51.7373 52.2567 51.8104H51.9987C52.003 51.6951 52.0377 51.594 52.1029 51.5073C52.1681 51.4199 52.2534 51.3518 52.3588 51.3031C52.4648 51.2543 52.5813 51.23 52.7081 51.23C52.8443 51.23 52.9611 51.2576 53.0586 51.3127C53.156 51.3672 53.2309 51.4392 53.2832 51.5288C53.3355 51.6184 53.3617 51.7151 53.3617 51.819C53.3617 51.943 53.3291 52.0487 53.2639 52.1361C53.1994 52.2236 53.1116 52.2841 53.0005 52.3178V52.335C53.1395 52.3579 53.2481 52.4171 53.3262 52.5124C53.4043 52.607 53.4434 52.7241 53.4434 52.8639C53.4434 52.9836 53.4108 53.0911 53.3456 53.1864C53.2811 53.281 53.1929 53.3555 53.0811 53.41C52.9693 53.4644 52.8421 53.4916 52.6995 53.4916Z" fill="#17313B"/>
</g>
</g>
<defs>
<clipPath id="clip0_1_6">
<rect width="100" height="70" fill="white"/>
</clipPath>
<clipPath id="clip1_1_6">
<rect width="56" height="60.5405" fill="white" transform="translate(22 5)"/>
</clipPath>
</defs>
</svg>
