<svg width="82" height="82" viewBox="0 0 82 82" fill="none" xmlns="http://www.w3.org/2000/svg">
<!-- <rect width="82" height="82" fill="black"/> -->
<path d="M17.7511 63.61L16.9918 64.2608L17.0419 64.3192L17.1003 64.3693L17.7511 63.61ZM17.4911 62.115L18.3231 62.6697L18.3916 62.5669L18.4331 62.4506L17.4911 62.115ZM32.3111 20.515L33.2531 20.8506L33.2658 20.8148L33.2758 20.7781L32.3111 20.515ZM33.1561 19.15L32.4834 18.4101L32.4658 18.4261L32.449 18.4429L33.1561 19.15ZM48.8211 19.15L49.5282 18.4429L49.5282 18.4429L48.8211 19.15ZM49.6661 20.515L48.7013 20.7781L48.7115 20.8155L48.7245 20.8519L49.6661 20.515ZM64.5511 62.115L65.4998 61.7988L65.4963 61.7884L65.4926 61.7781L64.5511 62.115ZM64.1611 63.61L64.8682 64.3171L64.8682 64.3171L64.1611 63.61ZM50.8361 62.505L49.8979 62.8512L49.9068 62.8753L49.9169 62.8989L50.8361 62.505ZM48.8211 57.045L49.7592 56.6988L49.518 56.045H48.8211V57.045ZM33.1561 57.045V56.045H32.4592L32.2179 56.6988L33.1561 57.045ZM31.1411 62.505L32.0602 62.8989L32.0703 62.8753L32.0792 62.8512L31.1411 62.505ZM30.4261 63.48L29.719 62.7729L29.6954 62.7964L29.6735 62.8215L30.4261 63.48ZM36.1461 46.06L35.1961 45.7476L34.7645 47.06H36.1461V46.06ZM45.8311 46.06V47.06H47.2185L46.7798 45.7438L45.8311 46.06ZM40.9561 31.435L41.9048 31.1188L40.9497 28.2536L40.0061 31.1226L40.9561 31.435ZM18.7911 63C18.6461 63 18.5288 62.9595 18.4019 62.8507L17.1003 64.3693C17.58 64.7805 18.1561 65 18.7911 65V63ZM18.5103 62.9592C18.4015 62.8323 18.3611 62.715 18.3611 62.57H16.3611C16.3611 63.205 16.5806 63.7811 16.9918 64.2608L18.5103 62.9592ZM18.3611 62.57C18.3611 62.5672 18.3613 62.5791 18.3551 62.601C18.3486 62.6236 18.3377 62.6478 18.3231 62.6697L16.659 61.5603C16.451 61.8723 16.3611 62.2217 16.3611 62.57H18.3611ZM18.4331 62.4506L33.2531 20.8506L31.3691 20.1794L16.5491 61.7794L18.4331 62.4506ZM33.2758 20.7781C33.3503 20.5052 33.5236 20.1967 33.8632 19.8571L32.449 18.4429C31.9218 18.97 31.5319 19.5714 31.3463 20.2519L33.2758 20.7781ZM33.8287 19.8899C34.0842 19.6577 34.4547 19.5 35.0411 19.5V17.5C34.0675 17.5 33.1813 17.7756 32.4834 18.4101L33.8287 19.8899ZM35.0411 19.5H46.9361V17.5H35.0411V19.5ZM46.9361 19.5C47.5881 19.5 47.9255 19.6686 48.114 19.8571L49.5282 18.4429C48.85 17.7647 47.9308 17.5 46.9361 17.5V19.5ZM48.114 19.8571C48.4535 20.1967 48.6269 20.5052 48.7013 20.7781L50.6308 20.2519C50.4453 19.5714 50.0553 18.97 49.5282 18.4429L48.114 19.8571ZM48.7245 20.8519L63.6095 62.4519L65.4926 61.7781L50.6076 20.1781L48.7245 20.8519ZM63.6024 62.4312C63.6041 62.4364 63.6161 62.477 63.6161 62.57H65.6161C65.6161 62.3163 65.5847 62.0536 65.4998 61.7988L63.6024 62.4312ZM63.6161 62.57C63.6161 62.667 63.5904 62.7665 63.454 62.9029L64.8682 64.3171C65.3385 63.8468 65.6161 63.253 65.6161 62.57H63.6161ZM63.454 62.9029C63.3938 62.9631 63.3287 63 63.1861 63V65C63.8234 65 64.4084 64.7769 64.8682 64.3171L63.454 62.9029ZM63.1861 63H53.1761V65H63.1861V63ZM53.1761 63C52.573 63 52.3412 62.8559 52.2582 62.7729L50.844 64.1871C51.4543 64.7974 52.3058 65 53.1761 65V63ZM52.2582 62.7729C51.9619 62.4766 51.817 62.2551 51.7552 62.1111L49.9169 62.8989C50.1152 63.3615 50.447 63.7901 50.844 64.1871L52.2582 62.7729ZM51.7742 62.1588L49.7592 56.6988L47.8829 57.3912L49.8979 62.8512L51.7742 62.1588ZM48.8211 56.045H33.1561V58.045H48.8211V56.045ZM32.2179 56.6988L30.2029 62.1588L32.0792 62.8512L34.0942 57.3912L32.2179 56.6988ZM30.2219 62.1111C30.1602 62.2551 30.0153 62.4766 29.719 62.7729L31.1332 64.1871C31.5302 63.7901 31.862 63.3615 32.0602 62.8989L30.2219 62.1111ZM29.6735 62.8215C29.6576 62.8397 29.4844 63 28.8011 63V65C29.6778 65 30.5879 64.8136 31.1787 64.1385L29.6735 62.8215ZM28.8011 63H18.7911V65H28.8011V63ZM36.1461 47.06H45.8311V45.06H36.1461V47.06ZM46.7798 45.7438L41.9048 31.1188L40.0074 31.7512L44.8824 46.3762L46.7798 45.7438ZM40.0061 31.1226L35.1961 45.7476L37.096 46.3724L41.906 31.7474L40.0061 31.1226Z" fill="#dbdbdb"/>
</svg>
