<svg width="82" height="82" viewBox="0 0 82 82" fill="none" xmlns="http://www.w3.org/2000/svg">
<!-- <rect width="82" height="82" fill="black"/> -->
<path d="M31.0424 62.765L30.6531 63.6862L30.6642 63.6908L31.0424 62.765ZM23.7624 56.915L22.9303 57.4697L22.9367 57.4792L23.7624 56.915ZM20.9024 47.035L19.9027 47.0594L19.9029 47.0689L19.9033 47.0784L20.9024 47.035ZM20.9024 35.465L19.9033 35.4206L19.9029 35.4312L19.9026 35.4417L20.9024 35.465ZM23.8274 25.715L23.0037 25.1479L23.0017 25.1508L23.8274 25.715ZM31.1724 19.8L30.7877 18.8769L30.7831 18.8789L31.1724 19.8ZM49.8274 18.89L49.5571 19.8528L49.567 19.8556L49.577 19.8581L49.8274 18.89ZM56.5224 21.945L55.9428 22.76L55.9489 22.7643L55.9551 22.7685L56.5224 21.945ZM61.1374 27.015L60.2623 27.4991L60.2668 27.5071L61.1374 27.015ZM62.8924 34.035H63.8924V34.0269L63.8922 34.0189L62.8924 34.035ZM62.4374 35.01L61.7866 34.2507L61.7574 34.2757L61.7303 34.3029L62.4374 35.01ZM49.0474 35.01L48.3966 35.7693L48.3966 35.7693L49.0474 35.01ZM48.2674 33.645L47.3102 33.9344L47.3142 33.9479L47.3187 33.9612L48.2674 33.645ZM37.2824 30.46L37.9449 31.209L37.9529 31.202L37.9606 31.1948L37.2824 30.46ZM35.4624 35.79L36.4617 35.8266L36.4618 35.8239L35.4624 35.79ZM35.4624 46.71L36.4618 46.6761L36.4618 46.6751L35.4624 46.71ZM37.2824 52.105L36.6041 52.8398L36.6119 52.847L36.6198 52.854L37.2824 52.105ZM45.7974 52.56L45.2733 51.7083L45.2657 51.713L45.2583 51.7177L45.7974 52.56ZM48.2674 48.855L49.2271 49.1359L49.2327 49.1168L49.2375 49.0975L48.2674 48.855ZM48.9824 47.49L49.5636 48.3037L49.5731 48.297L49.5824 48.29L48.9824 47.49ZM62.4374 47.49L61.7303 48.1971L61.7574 48.2243L61.7866 48.2493L62.4374 47.49ZM62.8924 48.465L63.8922 48.4811L63.8924 48.4731V48.465H62.8924ZM61.1374 55.55L62.008 56.0421L62.0124 56.0341L61.1374 55.55ZM56.5224 60.62L57.0897 61.4435L57.0958 61.4393L57.1019 61.435L56.5224 60.62ZM49.8274 63.675L50.0819 64.6421L50.0933 64.639L49.8274 63.675ZM41.8324 63.65C37.8154 63.65 34.3522 63.0367 31.4205 61.8392L30.6642 63.6908C33.8859 65.0066 37.616 65.65 41.8324 65.65V63.65ZM31.4316 61.8439C28.5204 60.6138 26.2498 58.7827 24.588 56.3508L22.9367 57.4792C24.8283 60.2473 27.411 62.3162 30.6531 63.6861L31.4316 61.8439ZM24.5944 56.3603C22.9869 53.949 22.069 50.8456 21.9014 46.9916L19.9033 47.0784C20.0824 51.1978 21.0712 54.681 22.9303 57.4697L24.5944 56.3603ZM21.9021 47.0106C21.859 45.2431 21.8374 43.3447 21.8374 41.315H19.8374C19.8374 43.3587 19.8591 45.2735 19.9027 47.0594L21.9021 47.0106ZM21.8374 41.315C21.8374 39.2854 21.859 37.3432 21.9021 35.4882L19.9026 35.4417C19.8591 37.3135 19.8374 39.2713 19.8374 41.315H21.8374ZM21.9014 35.5094C22.0684 31.751 23.004 28.6924 24.653 26.2792L23.0017 25.1508C21.0974 27.9376 20.083 31.379 19.9033 35.4206L21.9014 35.5094ZM24.651 26.2821C26.3584 23.8024 28.653 21.9501 31.5616 20.7211L30.7831 18.8789C27.5384 20.2499 24.9364 22.341 23.0037 25.1479L24.651 26.2821ZM31.557 20.7231C34.5353 19.4821 37.9544 18.85 41.8324 18.85V16.85C37.737 16.85 34.0494 17.5179 30.7877 18.8769L31.557 20.7231ZM41.8324 18.85C44.6113 18.85 47.1845 19.1868 49.5571 19.8528L50.0976 17.9272C47.5302 17.2065 44.7734 16.85 41.8324 16.85V18.85ZM49.577 19.8581C51.9822 20.4802 54.1004 21.4498 55.9428 22.76L57.1019 21.13C55.0443 19.6669 52.6991 18.5998 50.0777 17.9219L49.577 19.8581ZM55.9551 22.7685C57.7799 24.0256 59.2119 25.6002 60.2623 27.4991L62.0124 26.5309C60.8095 24.3564 59.1648 22.5511 57.0897 21.1215L55.9551 22.7685ZM60.2668 27.5071C61.2981 29.3317 61.8514 31.5024 61.8925 34.0511L63.8922 34.0189C63.8467 31.1943 63.23 28.685 62.0079 26.5229L60.2668 27.5071ZM61.8924 34.035C61.8924 34.125 61.8745 34.1754 61.7866 34.2507L63.0882 35.7693C63.6069 35.3246 63.8924 34.725 63.8924 34.035H61.8924ZM61.7303 34.3029C61.6701 34.3631 61.605 34.4 61.4624 34.4V36.4C62.0997 36.4 62.6847 36.1769 63.1445 35.7171L61.7303 34.3029ZM61.4624 34.4H50.4774V36.4H61.4624V34.4ZM50.4774 34.4C49.9262 34.4 49.7366 34.2837 49.6982 34.2507L48.3966 35.7693C48.9648 36.2563 49.7286 36.4 50.4774 36.4V34.4ZM49.6982 34.2507C49.5988 34.1656 49.4114 33.9149 49.216 33.3288L47.3187 33.9612C47.5566 34.6751 47.8893 35.3344 48.3966 35.7693L49.6982 34.2507ZM49.2246 33.3556C48.6268 31.3784 47.6979 29.8491 46.3119 29.0175L45.2829 30.7325C46.0635 31.2009 46.7812 32.1849 47.3102 33.9344L49.2246 33.3556ZM46.3119 29.0175C45.0404 28.2546 43.5313 27.9 41.8324 27.9V29.9C43.2535 29.9 44.3876 30.1954 45.2829 30.7325L46.3119 29.0175ZM41.8324 27.9C39.7383 27.9 37.9577 28.4757 36.6041 29.7252L37.9606 31.1948C38.8604 30.3643 40.1131 29.9 41.8324 29.9V27.9ZM36.6198 29.711C35.1824 30.9826 34.5527 33.1067 34.4629 35.7561L36.4618 35.8239C36.5453 33.36 37.129 31.9308 37.9449 31.209L36.6198 29.711ZM34.463 35.7534C34.3321 39.3317 34.3322 42.9955 34.463 46.7449L36.4618 46.6751C36.3325 42.9711 36.3326 39.355 36.4617 35.8266L34.463 35.7534ZM34.4629 46.7439C34.5529 49.3986 35.1843 51.5292 36.6041 52.8398L37.9606 51.3702C37.1271 50.6008 36.5451 49.1347 36.4618 46.6761L34.4629 46.7439ZM36.6198 52.854C37.9742 54.0521 39.749 54.6 41.8324 54.6V52.6C40.1024 52.6 38.8439 52.1512 37.9449 51.356L36.6198 52.854ZM41.8324 54.6C43.5425 54.6 45.0608 54.2187 46.3364 53.4023L45.2583 51.7177C44.3672 52.288 43.2423 52.6 41.8324 52.6V54.6ZM46.3215 53.4117C47.7303 52.5447 48.6653 51.0553 49.2271 49.1359L47.3076 48.5741C46.8294 50.208 46.1178 51.1886 45.2733 51.7083L46.3215 53.4117ZM49.2375 49.0975C49.3118 48.8003 49.3907 48.5937 49.4619 48.4578C49.5344 48.3195 49.5783 48.2932 49.5636 48.3037L48.4011 46.6763C47.7923 47.1112 47.4824 47.8719 47.2972 48.6125L49.2375 49.0975ZM49.5824 48.29C49.6886 48.2103 49.9409 48.1 50.4774 48.1V46.1C49.7138 46.1 48.9694 46.2497 48.3824 46.69L49.5824 48.29ZM50.4774 48.1H61.4624V46.1H50.4774V48.1ZM61.4624 48.1C61.605 48.1 61.6701 48.1369 61.7303 48.1971L63.1445 46.7829C62.6847 46.3231 62.0997 46.1 61.4624 46.1V48.1ZM61.7866 48.2493C61.8745 48.3246 61.8924 48.375 61.8924 48.465H63.8924C63.8924 47.775 63.6069 47.1754 63.0882 46.7307L61.7866 48.2493ZM61.8925 48.4489C61.8514 50.9972 61.2982 53.1934 60.2623 55.0659L62.0124 56.0341C63.2299 53.8333 63.8467 51.3062 63.8922 48.4811L61.8925 48.4489ZM60.2668 55.0579C59.2156 56.9178 57.7788 58.4994 55.9428 59.805L57.1019 61.435C59.1659 59.9672 60.8058 58.1688 62.0079 56.0421L60.2668 55.0579ZM55.9551 59.7965C54.1058 61.0704 51.978 62.0444 49.5614 62.711L50.0933 64.639C52.7034 63.919 55.0389 62.8562 57.0897 61.4435L55.9551 59.7965ZM49.5729 62.7079C47.1952 63.3336 44.6166 63.65 41.8324 63.65V65.65C44.7682 65.65 47.5196 65.3164 50.0819 64.6421L49.5729 62.7079Z" fill="#dbdbdb"/>
</svg>
