<svg width="82" height="82" viewBox="0 0 82 82" fill="none" xmlns="http://www.w3.org/2000/svg">
<!-- <rect width="82" height="82" fill="black"/> -->
<path d="M23.5793 63.545L22.8722 64.2521L22.8957 64.2757L22.9208 64.2976L23.5793 63.545ZM23.5793 19.02L24.2378 19.7726L24.2629 19.7506L24.2864 19.7271L23.5793 19.02ZM53.5443 20.19L53.1679 21.1165L53.1729 21.1185L53.5443 20.19ZM60.1093 42.55L60.9263 43.1267L60.9315 43.1192L60.1093 42.55ZM53.5443 47.425L53.1979 46.4869L53.1932 46.4887L53.5443 47.425ZM37.5543 48.985V47.985H36.5543V48.985H37.5543ZM37.0343 63.545L36.3272 62.8379L36.3272 62.8379L37.0343 63.545ZM37.2943 38.52H36.2943V39.52H37.2943V38.52ZM46.5893 37.415L47.237 38.1769L47.2401 38.1743L46.5893 37.415ZM46.9143 30.525L47.7352 29.9539L47.7352 29.9539L46.9143 30.525ZM37.2943 29.03V28.03H36.2943V29.03H37.2943ZM24.7493 63C24.5743 63 24.4147 62.9472 24.2378 62.7924L22.9208 64.2976C23.4373 64.7495 24.0576 65 24.7493 65V63ZM24.2864 62.8379C24.1213 62.6728 24.0593 62.5131 24.0593 62.31H22.0593C22.0593 63.0602 22.344 63.7239 22.8722 64.2521L24.2864 62.8379ZM24.0593 62.31V20.19H22.0593V62.31H24.0593ZM24.0593 20.19C24.0593 19.9902 24.1166 19.8786 24.2378 19.7726L22.9208 18.2674C22.3486 18.7681 22.0593 19.4364 22.0593 20.19H24.0593ZM24.2864 19.7271C24.4724 19.5411 24.6169 19.5 24.7493 19.5V17.5C24.015 17.5 23.3795 17.8055 22.8722 18.3129L24.2864 19.7271ZM24.7493 19.5H43.7293V17.5H24.7493V19.5ZM43.7293 19.5C47.4025 19.5 50.5407 20.0492 53.1679 21.1165L53.9207 19.2635C51.0012 18.0775 47.5961 17.5 43.7293 17.5V19.5ZM53.1729 21.1185C55.8224 22.1783 57.8445 23.7704 59.2821 25.8869L60.9365 24.7631C59.2541 22.2863 56.8995 20.4551 53.9157 19.2615L53.1729 21.1185ZM59.2821 25.8869C60.7043 27.9807 61.4493 30.6537 61.4493 33.97H63.4493C63.4493 30.353 62.6343 27.2626 60.9365 24.7631L59.2821 25.8869ZM61.4493 33.97C61.4493 37.2872 60.704 39.9342 59.2871 41.9808L60.9315 43.1192C62.6346 40.6592 63.4493 37.5861 63.4493 33.97H61.4493ZM59.2923 41.9733C57.8617 44 55.8465 45.509 53.1979 46.4869L53.8907 48.3631C56.8754 47.261 59.2369 45.52 60.9263 43.1267L59.2923 41.9733ZM53.1932 46.4887C50.5581 47.4768 47.4106 47.985 43.7293 47.985V49.985C47.588 49.985 50.9839 49.4532 53.8954 48.3613L53.1932 46.4887ZM43.7293 47.985H37.5543V49.985H43.7293V47.985ZM36.5543 48.985V62.31H38.5543V48.985H36.5543ZM36.5543 62.31C36.5543 62.5131 36.4923 62.6728 36.3272 62.8379L37.7414 64.2521C38.2696 63.7239 38.5543 63.0602 38.5543 62.31H36.5543ZM36.3272 62.8379C36.2331 62.932 36.108 63 35.8643 63V65C36.5739 65 37.2289 64.7646 37.7414 64.2521L36.3272 62.8379ZM35.8643 63H24.7493V65H35.8643V63ZM37.2943 39.52H43.4043V37.52H37.2943V39.52ZM43.4043 39.52C44.8716 39.52 46.1702 39.0837 47.2369 38.1769L45.9417 36.6531C45.2751 37.2196 44.4503 37.52 43.4043 37.52V39.52ZM47.2401 38.1743C48.4403 37.1455 48.9543 35.6309 48.9543 33.84H46.9543C46.9543 35.2557 46.5583 36.1245 45.9385 36.6557L47.2401 38.1743ZM48.9543 33.84C48.9543 32.4224 48.5451 31.1181 47.7352 29.9539L46.0934 31.0961C46.6702 31.9252 46.9543 32.831 46.9543 33.84H48.9543ZM47.7352 29.9539C46.7924 28.5986 45.2509 28.03 43.4043 28.03V30.03C44.851 30.03 45.6496 30.458 46.0934 31.0961L47.7352 29.9539ZM43.4043 28.03H37.2943V30.03H43.4043V28.03ZM36.2943 29.03V38.52H38.2943V29.03H36.2943Z" fill="#dbdbdb"/>
</svg>
