<svg width="82" height="82" viewBox="0 0 82 82" fill="none" xmlns="http://www.w3.org/2000/svg">
<!-- <rect width="82" height="82" fill="black"/> -->
<path d="M34.8588 63.545L34.1063 64.2035L34.1502 64.2537L34.2003 64.2976L34.8588 63.545ZM34.4038 30.59H35.4038V29.59H34.4038V30.59ZM21.9888 30.135L21.2363 30.7935L21.2802 30.8437L21.3303 30.8876L21.9888 30.135ZM21.9888 19.02L22.6959 19.7271L22.6959 19.7271L21.9888 19.02ZM60.9238 19.02L60.1712 19.6785L60.2152 19.7287L60.2653 19.7726L60.9238 19.02ZM60.9238 30.135L60.2167 29.4279L60.2167 29.4279L60.9238 30.135ZM48.5738 30.59V29.59H47.5738V30.59H48.5738ZM48.0538 63.545L47.3467 62.8379L47.3467 62.8379L48.0538 63.545ZM36.0938 63C35.8502 63 35.6749 62.9303 35.5173 62.7924L34.2003 64.2976C34.7361 64.7664 35.3842 65 36.0938 65V63ZM35.6114 62.8865C35.4736 62.7289 35.4038 62.5537 35.4038 62.31H33.4038C33.4038 63.0197 33.6374 63.6677 34.1063 64.2035L35.6114 62.8865ZM35.4038 62.31V30.59H33.4038V62.31H35.4038ZM34.4038 29.59H23.2238V31.59H34.4038V29.59ZM23.2238 29.59C22.9802 29.59 22.8049 29.5203 22.6473 29.3824L21.3303 30.8876C21.8661 31.3564 22.5142 31.59 23.2238 31.59V29.59ZM22.7414 29.4765C22.6036 29.3189 22.5338 29.1437 22.5338 28.9H20.5338C20.5338 29.6097 20.7674 30.2577 21.2363 30.7935L22.7414 29.4765ZM22.5338 28.9V20.19H20.5338V28.9H22.5338ZM22.5338 20.19C22.5338 19.9462 22.6018 19.8212 22.6959 19.7271L21.2817 18.3129C20.7692 18.8254 20.5338 19.4804 20.5338 20.19H22.5338ZM22.6959 19.7271C22.8611 19.562 23.0207 19.5 23.2238 19.5V17.5C22.4736 17.5 21.8099 17.7847 21.2817 18.3129L22.6959 19.7271ZM23.2238 19.5H59.7538V17.5H23.2238V19.5ZM59.7538 19.5C59.9536 19.5 60.0652 19.5573 60.1712 19.6785L61.6764 18.3615C61.1758 17.7893 60.5074 17.5 59.7538 17.5V19.5ZM60.2653 19.7726C60.3865 19.8786 60.4438 19.9902 60.4438 20.19H62.4438C62.4438 19.4364 62.1545 18.7681 61.5823 18.2674L60.2653 19.7726ZM60.4438 20.19V28.9H62.4438V20.19H60.4438ZM60.4438 28.9C60.4438 29.1031 60.3818 29.2628 60.2167 29.4279L61.6309 30.8421C62.1592 30.3139 62.4438 29.6502 62.4438 28.9H60.4438ZM60.2167 29.4279C60.1226 29.522 59.9976 29.59 59.7538 29.59V31.59C60.4634 31.59 61.1184 31.3546 61.6309 30.8421L60.2167 29.4279ZM59.7538 29.59H48.5738V31.59H59.7538V29.59ZM47.5738 30.59V62.31H49.5738V30.59H47.5738ZM47.5738 62.31C47.5738 62.5131 47.5118 62.6728 47.3467 62.8379L48.7609 64.2521C49.2892 63.7239 49.5738 63.0602 49.5738 62.31H47.5738ZM47.3467 62.8379C47.2526 62.932 47.1276 63 46.8838 63V65C47.5934 65 48.2484 64.7646 48.7609 64.2521L47.3467 62.8379ZM46.8838 63H36.0938V65H46.8838V63Z" fill="#dbdbdb"/>
</svg>
