<svg width="98" height="22" viewBox="0 0 98 22" fill="none" xmlns="http://www.w3.org/2000/svg">
<rect width="98" height="22" fill="none"/>
<path d="M30.951 10.229C30.951 10.229 31.8733 11.1965 30.9932 11.7246C30.8045 11.8387 30.5849 11.8894 30.3652 11.8894L27.1631 11.8908V20.3094C27.1631 20.3094 31.1721 18.2012 33.0238 17.0084C33.0238 17.0084 33.0336 17.0014 33.0505 16.9901C33.7743 16.4845 34.2024 15.6536 34.2024 14.7707V13.6624L34.215 12.1189L32.5872 10.7219L30.951 10.229Z" fill="#353535"/>
<path d="M19.3109 10.229C19.3109 10.229 18.3886 11.1965 19.2687 11.7246C19.4574 11.8387 19.6771 11.8894 19.8967 11.8894L23.0988 11.8908V20.3094C23.0988 20.3094 19.0899 18.2012 17.2382 17.0084C17.2382 17.0084 17.2283 17.0014 17.2114 16.9901C16.4876 16.4845 16.0595 15.6536 16.0595 14.7707V13.6624L16.0469 12.1189L17.6747 10.7219L19.3109 10.229Z" fill="#353535"/>
<path d="M24.5586 4.95087C24.5586 4.95087 24.5685 4.94664 24.5853 4.93819C25.0036 4.75653 25.4908 4.85651 25.8104 5.18042L34.2156 13.7047V6.83231C34.2156 6.83231 34.2156 6.82105 34.2156 6.72669C34.2156 6.26056 33.8931 5.86343 33.4989 5.60571C32.5315 4.97199 29.2815 2.99197 27.5495 2.01886C27.5495 2.01886 24.8233 1.64003 25.0303 2.59061C25.2359 3.54119 24.5586 4.95087 24.5586 4.95087Z" fill="#F3713C"/>
<path d="M16.0598 13.7059L27.5488 2.01865L26.9165 1.6342C25.9013 1.00048 25.5295 1.01878 25.0719 1.00188C24.6846 0.987801 24.227 1.04977 23.7679 1.28635C23.7679 1.28635 19.069 3.61422 17.0539 5.18444C17.0539 5.18444 15.9697 5.88716 16.0007 6.83774L16.0598 13.7059Z" fill="#F78E3B"/>
<path d="M38.6029 14.0547C38.5391 14.0547 38.4848 14.0323 38.4401 13.9876C38.3954 13.9429 38.3731 13.8887 38.3731 13.8248V7.58946C38.3731 7.51922 38.3954 7.46175 38.4401 7.41705C38.4848 7.37236 38.5391 7.35001 38.6029 7.35001H40.94C41.5849 7.35001 42.1149 7.44898 42.53 7.64693C42.9514 7.84488 43.2675 8.1386 43.4782 8.52811C43.6953 8.91762 43.8071 9.39334 43.8134 9.95525C43.8262 10.2362 43.8326 10.4852 43.8326 10.7023C43.8326 10.9195 43.8262 11.1653 43.8134 11.4399C43.8007 12.0337 43.6921 12.5254 43.4878 12.9149C43.2835 13.298 42.9738 13.5854 42.5587 13.7769C42.15 13.9621 41.6264 14.0547 40.9879 14.0547H38.6029ZM39.7044 12.9532H40.94C41.2976 12.9532 41.5881 12.9021 41.8116 12.8C42.0351 12.6978 42.1979 12.535 42.3001 12.3115C42.4086 12.0816 42.4661 11.7815 42.4725 11.4111C42.4789 11.2196 42.4821 11.0535 42.4821 10.9131C42.4885 10.7662 42.4885 10.6225 42.4821 10.4821C42.4821 10.3352 42.4789 10.1692 42.4725 9.98399C42.4597 9.46038 42.3288 9.07407 42.0798 8.82504C41.8308 8.57601 41.4349 8.45149 40.8921 8.45149H39.7044V12.9532ZM45.2226 14.0547C45.1588 14.0547 45.1045 14.0323 45.0598 13.9876C45.0151 13.9429 44.9927 13.8887 44.9927 13.8248V9.30394C44.9927 9.24009 45.0151 9.18581 45.0598 9.14111C45.1045 9.09642 45.1588 9.07407 45.2226 9.07407H46.0176C46.0878 9.07407 46.1421 9.09642 46.1804 9.14111C46.2251 9.18581 46.2475 9.24009 46.2475 9.30394V13.8248C46.2475 13.8887 46.2251 13.9429 46.1804 13.9876C46.1421 14.0323 46.0878 14.0547 46.0176 14.0547H45.2226ZM45.1843 8.25035C45.1141 8.25035 45.0566 8.23119 45.0119 8.19288C44.9736 8.14818 44.9544 8.09071 44.9544 8.02047V7.33085C44.9544 7.267 44.9736 7.21272 45.0119 7.16802C45.0566 7.12332 45.1141 7.10098 45.1843 7.10098H46.0559C46.1262 7.10098 46.1836 7.12332 46.2283 7.16802C46.273 7.21272 46.2954 7.267 46.2954 7.33085V8.02047C46.2954 8.09071 46.273 8.14818 46.2283 8.19288C46.1836 8.23119 46.1262 8.25035 46.0559 8.25035H45.1843ZM49.7691 16.1619C49.3029 16.1619 48.9198 16.1012 48.6197 15.9799C48.3196 15.8586 48.0833 15.7117 47.9109 15.5393C47.7385 15.3669 47.614 15.1945 47.5374 15.0221C47.4671 14.8561 47.4288 14.7252 47.4224 14.6294C47.4161 14.5655 47.4352 14.5081 47.4799 14.457C47.531 14.4123 47.5885 14.3899 47.6523 14.3899H48.4856C48.5495 14.3899 48.6006 14.4027 48.6389 14.4282C48.6772 14.4602 48.7091 14.5144 48.7346 14.5911C48.773 14.6741 48.824 14.7635 48.8879 14.8592C48.9517 14.955 49.0475 15.0348 49.1752 15.0987C49.3093 15.1689 49.4913 15.2041 49.7212 15.2041C49.9638 15.2041 50.1682 15.1689 50.3342 15.0987C50.5002 15.0285 50.6247 14.9103 50.7077 14.7443C50.7971 14.5783 50.8418 14.3484 50.8418 14.0547V13.4034C50.6886 13.5886 50.4906 13.7386 50.248 13.8535C50.0117 13.9685 49.718 14.026 49.3668 14.026C49.022 14.026 48.7251 13.9717 48.476 13.8631C48.227 13.7482 48.0195 13.5917 47.8535 13.3938C47.6874 13.1895 47.5597 12.95 47.4703 12.6754C47.3873 12.4009 47.3394 12.0976 47.3267 11.7655C47.3203 11.5931 47.3203 11.4207 47.3267 11.2483C47.3394 10.929 47.3873 10.6321 47.4703 10.3575C47.5533 10.083 47.6779 9.84351 47.8439 9.63918C48.0163 9.42846 48.227 9.26563 48.476 9.15069C48.7251 9.03575 49.022 8.97829 49.3668 8.97829C49.7308 8.97829 50.0373 9.04853 50.2863 9.189C50.5353 9.3231 50.7397 9.49231 50.8993 9.69664V9.31352C50.8993 9.24328 50.9216 9.18581 50.9663 9.14111C51.011 9.09642 51.0653 9.07407 51.1292 9.07407H51.905C51.9689 9.07407 52.0231 9.09642 52.0678 9.14111C52.1125 9.18581 52.1349 9.24328 52.1349 9.31352L52.1445 13.9302C52.1445 14.3899 52.0583 14.7858 51.8858 15.1179C51.7134 15.4499 51.4516 15.7053 51.1004 15.8841C50.7556 16.0693 50.3118 16.1619 49.7691 16.1619ZM49.7212 13.0107C49.983 13.0107 50.1937 12.9532 50.3533 12.8383C50.513 12.7233 50.6311 12.5733 50.7077 12.3881C50.7844 12.2029 50.8291 12.0145 50.8418 11.823C50.8482 11.74 50.8514 11.6346 50.8514 11.5069C50.8514 11.3792 50.8482 11.277 50.8418 11.2004C50.8291 11.0025 50.7844 10.8141 50.7077 10.6353C50.6311 10.4501 50.513 10.3001 50.3533 10.1851C50.1937 10.0638 49.983 10.0031 49.7212 10.0031C49.4594 10.0031 49.2487 10.0638 49.089 10.1851C48.9294 10.3001 48.8145 10.4533 48.7442 10.6449C48.6804 10.8364 48.6421 11.0472 48.6293 11.277C48.6165 11.4303 48.6165 11.5867 48.6293 11.7464C48.6421 11.9699 48.6804 12.1806 48.7442 12.3785C48.8145 12.5701 48.9294 12.7233 49.089 12.8383C49.2487 12.9532 49.4594 13.0107 49.7212 13.0107ZM53.6502 14.0547C53.5864 14.0547 53.5321 14.0323 53.4874 13.9876C53.4427 13.9429 53.4204 13.8887 53.4204 13.8248V9.30394C53.4204 9.24009 53.4427 9.18581 53.4874 9.14111C53.5321 9.09642 53.5864 9.07407 53.6502 9.07407H54.4452C54.5155 9.07407 54.5697 9.09642 54.6081 9.14111C54.6527 9.18581 54.6751 9.24009 54.6751 9.30394V13.8248C54.6751 13.8887 54.6527 13.9429 54.6081 13.9876C54.5697 14.0323 54.5155 14.0547 54.4452 14.0547H53.6502ZM53.6119 8.25035C53.5417 8.25035 53.4842 8.23119 53.4395 8.19288C53.4012 8.14818 53.3821 8.09071 53.3821 8.02047V7.33085C53.3821 7.267 53.4012 7.21272 53.4395 7.16802C53.4842 7.12332 53.5417 7.10098 53.6119 7.10098H54.4835C54.5538 7.10098 54.6112 7.12332 54.6559 7.16802C54.7006 7.21272 54.723 7.267 54.723 7.33085V8.02047C54.723 8.09071 54.7006 8.14818 54.6559 8.19288C54.6112 8.23119 54.5538 8.25035 54.4835 8.25035H53.6119ZM56.2907 14.0547C56.2268 14.0547 56.1725 14.0323 56.1278 13.9876C56.0831 13.9429 56.0608 13.8887 56.0608 13.8248V7.58946C56.0608 7.51922 56.0831 7.46175 56.1278 7.41705C56.1725 7.37236 56.2268 7.35001 56.2907 7.35001H58.8576C59.3557 7.35001 59.7899 7.42982 60.1602 7.58946C60.5306 7.74271 60.8179 7.97897 61.0222 8.29824C61.2266 8.61112 61.3287 9.00383 61.3287 9.47635C61.3287 9.95525 61.2266 10.3511 61.0222 10.664C60.8179 10.9705 60.5306 11.2004 60.1602 11.3537C59.7899 11.5069 59.3557 11.5835 58.8576 11.5835H57.4305V13.8248C57.4305 13.8887 57.4081 13.9429 57.3634 13.9876C57.3251 14.0323 57.2708 14.0547 57.2006 14.0547H56.2907ZM57.4113 10.5204H58.8097C59.1801 10.5204 59.4642 10.4342 59.6622 10.2618C59.8601 10.083 59.9591 9.82116 59.9591 9.47635C59.9591 9.15708 59.8665 8.90166 59.6813 8.7101C59.4961 8.51215 59.2056 8.41318 58.8097 8.41318H57.4113V10.5204ZM63.6029 14.1505C63.2709 14.1505 62.9708 14.0866 62.7026 13.9589C62.4344 13.8248 62.2205 13.6492 62.0609 13.4321C61.9076 13.2086 61.831 12.9596 61.831 12.685C61.831 12.238 62.0098 11.8836 62.3674 11.6218C62.7313 11.3537 63.2102 11.1749 63.8041 11.0855L65.1163 10.8939V10.6928C65.1163 10.4246 65.0492 10.2171 64.9152 10.0702C64.7811 9.92333 64.5512 9.84989 64.2255 9.84989C63.9957 9.84989 63.8073 9.89779 63.6604 9.99357C63.5199 10.083 63.4146 10.2043 63.3443 10.3575C63.2933 10.4405 63.2198 10.4821 63.124 10.4821H62.3674C62.2971 10.4821 62.2429 10.4629 62.2045 10.4246C62.1726 10.3863 62.1567 10.3352 62.1567 10.2713C62.163 10.1692 62.2045 10.0446 62.2812 9.89779C62.3578 9.75092 62.4791 9.61044 62.6451 9.47635C62.8112 9.33587 63.0251 9.21774 63.2869 9.12196C63.5487 9.02618 63.8648 8.97829 64.2351 8.97829C64.6374 8.97829 64.9758 9.02937 65.2504 9.13154C65.5313 9.22732 65.7548 9.35822 65.9209 9.52424C66.0869 9.69026 66.2082 9.88501 66.2848 10.1085C66.3614 10.332 66.3998 10.5683 66.3998 10.8173V13.8248C66.3998 13.8887 66.3774 13.9429 66.3327 13.9876C66.288 14.0323 66.2337 14.0547 66.1699 14.0547H65.3941C65.3238 14.0547 65.2663 14.0323 65.2217 13.9876C65.1833 13.9429 65.1642 13.8887 65.1642 13.8248V13.4513C65.0812 13.5726 64.9694 13.6875 64.8289 13.7961C64.6885 13.8982 64.5161 13.9844 64.3117 14.0547C64.1138 14.1185 63.8775 14.1505 63.6029 14.1505ZM63.9286 13.2405C64.1521 13.2405 64.3532 13.1927 64.532 13.0969C64.7172 13.0011 64.8609 12.8542 64.963 12.6563C65.0716 12.4519 65.1259 12.1965 65.1259 11.89V11.6889L64.1681 11.8421C63.7913 11.8996 63.5104 11.9922 63.3252 12.1199C63.14 12.2476 63.0474 12.4041 63.0474 12.5892C63.0474 12.7297 63.0889 12.851 63.1719 12.9532C63.2613 13.049 63.3731 13.1224 63.5072 13.1735C63.6413 13.2182 63.7817 13.2405 63.9286 13.2405ZM69.0748 14.1505C68.7428 14.1505 68.4427 14.0866 68.1745 13.9589C67.9063 13.8248 67.6924 13.6492 67.5327 13.4321C67.3795 13.2086 67.3029 12.9596 67.3029 12.685C67.3029 12.238 67.4817 11.8836 67.8392 11.6218C68.2032 11.3537 68.6821 11.1749 69.276 11.0855L70.5882 10.8939V10.6928C70.5882 10.4246 70.5211 10.2171 70.387 10.0702C70.2529 9.92333 70.0231 9.84989 69.6974 9.84989C69.4675 9.84989 69.2792 9.89779 69.1323 9.99357C68.9918 10.083 68.8865 10.2043 68.8162 10.3575C68.7651 10.4405 68.6917 10.4821 68.5959 10.4821H67.8392C67.769 10.4821 67.7147 10.4629 67.6764 10.4246C67.6445 10.3863 67.6285 10.3352 67.6285 10.2713C67.6349 10.1692 67.6764 10.0446 67.753 9.89779C67.8297 9.75092 67.951 9.61044 68.117 9.47635C68.283 9.33587 68.4969 9.21774 68.7587 9.12196C69.0205 9.02618 69.3366 8.97829 69.707 8.97829C70.1093 8.97829 70.4477 9.02937 70.7223 9.13154C71.0032 9.22732 71.2267 9.35822 71.3927 9.52424C71.5587 9.69026 71.6801 9.88501 71.7567 10.1085C71.8333 10.332 71.8716 10.5683 71.8716 10.8173V13.8248C71.8716 13.8887 71.8493 13.9429 71.8046 13.9876C71.7599 14.0323 71.7056 14.0547 71.6418 14.0547H70.8659C70.7957 14.0547 70.7382 14.0323 70.6935 13.9876C70.6552 13.9429 70.6361 13.8887 70.6361 13.8248V13.4513C70.553 13.5726 70.4413 13.6875 70.3008 13.7961C70.1603 13.8982 69.9879 13.9844 69.7836 14.0547C69.5857 14.1185 69.3494 14.1505 69.0748 14.1505ZM69.4005 13.2405C69.624 13.2405 69.8251 13.1927 70.0039 13.0969C70.1891 13.0011 70.3327 12.8542 70.4349 12.6563C70.5435 12.4519 70.5977 12.1965 70.5977 11.89V11.6889L69.6399 11.8421C69.2632 11.8996 68.9822 11.9922 68.7971 12.1199C68.6119 12.2476 68.5193 12.4041 68.5193 12.5892C68.5193 12.7297 68.5608 12.851 68.6438 12.9532C68.7332 13.049 68.8449 13.1224 68.979 13.1735C69.1131 13.2182 69.2536 13.2405 69.4005 13.2405ZM72.4825 15.8745C72.4186 15.8745 72.3643 15.8522 72.3196 15.8075C72.2749 15.7628 72.2526 15.7085 72.2526 15.6447V15.0891C72.2526 15.0253 72.2749 14.971 72.3196 14.9263C72.3643 14.8816 72.4186 14.8592 72.4825 14.8592H72.7315C72.9294 14.8592 73.0763 14.8241 73.1721 14.7539C73.2679 14.6837 73.3317 14.5847 73.3636 14.457C73.3956 14.3356 73.4115 14.1984 73.4115 14.0451V9.30394C73.4115 9.24009 73.4339 9.18581 73.4786 9.14111C73.5233 9.09642 73.5776 9.07407 73.6414 9.07407H74.4747C74.5386 9.07407 74.5928 9.09642 74.6375 9.14111C74.6822 9.18581 74.7046 9.24009 74.7046 9.30394V14.0643C74.7046 14.441 74.6343 14.7635 74.4939 15.0317C74.3598 15.2998 74.1554 15.5074 73.8809 15.6542C73.6127 15.8011 73.2679 15.8745 72.8464 15.8745H72.4825ZM73.6031 8.25035C73.5329 8.25035 73.4754 8.23119 73.4307 8.19288C73.386 8.14818 73.3636 8.09071 73.3636 8.02047V7.33085C73.3636 7.267 73.386 7.21272 73.4307 7.16802C73.4754 7.12332 73.5329 7.10098 73.6031 7.10098H74.5034C74.5737 7.10098 74.6312 7.12332 74.6758 7.16802C74.7205 7.21272 74.7429 7.267 74.7429 7.33085V8.02047C74.7429 8.09071 74.7205 8.14818 74.6758 8.19288C74.6312 8.23119 74.5737 8.25035 74.5034 8.25035H73.6031ZM76.2112 14.0547C76.1473 14.0547 76.0931 14.0323 76.0484 13.9876C76.0037 13.9429 75.9813 13.8887 75.9813 13.8248V9.30394C75.9813 9.24009 76.0037 9.18581 76.0484 9.14111C76.0931 9.09642 76.1473 9.07407 76.2112 9.07407H77.0062C77.0764 9.07407 77.1307 9.09642 77.169 9.14111C77.2137 9.18581 77.236 9.24009 77.236 9.30394V13.8248C77.236 13.8887 77.2137 13.9429 77.169 13.9876C77.1307 14.0323 77.0764 14.0547 77.0062 14.0547H76.2112ZM76.1729 8.25035C76.1026 8.25035 76.0452 8.23119 76.0005 8.19288C75.9622 8.14818 75.943 8.09071 75.943 8.02047V7.33085C75.943 7.267 75.9622 7.21272 76.0005 7.16802C76.0452 7.12332 76.1026 7.10098 76.1729 7.10098H77.0445C77.1147 7.10098 77.1722 7.12332 77.2169 7.16802C77.2616 7.21272 77.2839 7.267 77.2839 7.33085V8.02047C77.2839 8.09071 77.2616 8.14818 77.2169 8.19288C77.1722 8.23119 77.1147 8.25035 77.0445 8.25035H76.1729Z" fill="#353535"/>
</svg>
