<svg width="78" height="22" viewBox="0 0 78 22" fill="none" xmlns="http://www.w3.org/2000/svg">
<g clip-path="url(#clip0_61_2)">
<path d="M20.951 10.229C20.951 10.229 21.8733 11.1965 20.9932 11.7246C20.8045 11.8387 20.5849 11.8894 20.3652 11.8894L17.1631 11.8908V20.3094C17.1631 20.3094 21.1721 18.2012 23.0238 17.0084C23.0238 17.0084 23.0336 17.0014 23.0505 16.9901C23.7743 16.4845 24.2024 15.6536 24.2024 14.7707V13.6624L24.215 12.1189L22.5872 10.7219L20.951 10.229Z" fill="#353535"/>
<path d="M9.31087 10.229C9.31087 10.229 8.38857 11.1965 9.26867 11.7246C9.45737 11.8387 9.67708 11.8894 9.89668 11.8894L13.0988 11.8908V20.3094C13.0988 20.3094 9.08987 18.2012 7.23817 17.0084C7.23817 17.0084 7.22827 17.0014 7.21137 16.9901C6.48757 16.4845 6.05947 15.6536 6.05947 14.7707V13.6624L6.04688 12.1189L7.67467 10.7219L9.31087 10.229Z" fill="#353535"/>
<path d="M14.5586 4.95087C14.5586 4.95087 14.5685 4.94664 14.5853 4.93819C15.0036 4.75653 15.4908 4.85651 15.8104 5.18042L24.2156 13.7047V6.83231C24.2156 6.83231 24.2156 6.82105 24.2156 6.72669C24.2156 6.26056 23.8931 5.86343 23.4989 5.60571C22.5315 4.97199 19.2815 2.99197 17.5495 2.01886C17.5495 2.01886 14.8233 1.64003 15.0303 2.59061C15.2359 3.54119 14.5586 4.95087 14.5586 4.95087Z" fill="#F3713C"/>
<path d="M6.05981 13.7059L17.5488 2.01865L16.9165 1.6342C15.9013 1.00048 15.5295 1.01878 15.0719 1.00188C14.6846 0.987804 14.227 1.04977 13.7679 1.28635C13.7679 1.28635 9.06901 3.61422 7.05391 5.18444C7.05391 5.18444 5.96971 5.88716 6.00071 6.83774L6.05981 13.7059Z" fill="#F78E3B"/>
<path d="M28.6029 14.0548C28.5391 14.0548 28.4848 14.0324 28.4401 13.9877C28.3954 13.943 28.3731 13.8888 28.3731 13.8249V7.58955C28.3731 7.51931 28.3954 7.46184 28.4401 7.41714C28.4848 7.37245 28.5391 7.3501 28.6029 7.3501H30.94C31.5849 7.3501 32.1149 7.44907 32.53 7.64702C32.9514 7.84497 33.2675 8.13869 33.4782 8.5282C33.6953 8.91771 33.8071 9.39343 33.8134 9.95534C33.8262 10.2363 33.8326 10.4853 33.8326 10.7024C33.8326 10.9196 33.8262 11.1654 33.8134 11.44C33.8007 12.0338 33.6921 12.5255 33.4878 12.915C33.2835 13.2981 32.9738 13.5855 32.5587 13.777C32.15 13.9622 31.6264 14.0548 30.9879 14.0548H28.6029ZM29.7044 12.9533H30.94C31.2976 12.9533 31.5881 12.9022 31.8116 12.8001C32.0351 12.6979 32.1979 12.5351 32.3001 12.3116C32.4086 12.0817 32.4661 11.7816 32.4725 11.4112C32.4789 11.2197 32.4821 11.0536 32.4821 10.9132C32.4885 10.7663 32.4885 10.6226 32.4821 10.4822C32.4821 10.3353 32.4789 10.1693 32.4725 9.98408C32.4597 9.46047 32.3288 9.07416 32.0798 8.82513C31.8308 8.5761 31.4349 8.45158 30.8921 8.45158H29.7044V12.9533ZM35.2226 14.0548C35.1588 14.0548 35.1045 14.0324 35.0598 13.9877C35.0151 13.943 34.9927 13.8888 34.9927 13.8249V9.30403C34.9927 9.24018 35.0151 9.1859 35.0598 9.1412C35.1045 9.09651 35.1588 9.07416 35.2226 9.07416H36.0176C36.0878 9.07416 36.1421 9.09651 36.1804 9.1412C36.2251 9.1859 36.2475 9.24018 36.2475 9.30403V13.8249C36.2475 13.8888 36.2251 13.943 36.1804 13.9877C36.1421 14.0324 36.0878 14.0548 36.0176 14.0548H35.2226ZM35.1843 8.25044C35.1141 8.25044 35.0566 8.23128 35.0119 8.19297C34.9736 8.14827 34.9544 8.0908 34.9544 8.02056V7.33094C34.9544 7.26709 34.9736 7.21281 35.0119 7.16811C35.0566 7.12341 35.1141 7.10107 35.1843 7.10107H36.0559C36.1262 7.10107 36.1836 7.12341 36.2283 7.16811C36.273 7.21281 36.2954 7.26709 36.2954 7.33094V8.02056C36.2954 8.0908 36.273 8.14827 36.2283 8.19297C36.1836 8.23128 36.1262 8.25044 36.0559 8.25044H35.1843ZM39.7691 16.162C39.3029 16.162 38.9198 16.1013 38.6197 15.98C38.3196 15.8587 38.0833 15.7118 37.9109 15.5394C37.7385 15.367 37.614 15.1946 37.5374 15.0222C37.4671 14.8562 37.4288 14.7253 37.4224 14.6295C37.4161 14.5656 37.4352 14.5082 37.4799 14.4571C37.531 14.4124 37.5885 14.39 37.6523 14.39H38.4856C38.5495 14.39 38.6006 14.4028 38.6389 14.4283C38.6772 14.4603 38.7091 14.5145 38.7346 14.5912C38.773 14.6742 38.824 14.7636 38.8879 14.8593C38.9517 14.9551 39.0475 15.0349 39.1752 15.0988C39.3093 15.169 39.4913 15.2042 39.7212 15.2042C39.9638 15.2042 40.1682 15.169 40.3342 15.0988C40.5002 15.0286 40.6247 14.9104 40.7077 14.7444C40.7971 14.5784 40.8418 14.3485 40.8418 14.0548V13.4035C40.6886 13.5887 40.4906 13.7387 40.248 13.8536C40.0117 13.9686 39.718 14.0261 39.3668 14.0261C39.022 14.0261 38.7251 13.9718 38.476 13.8632C38.227 13.7483 38.0195 13.5918 37.8535 13.3939C37.6874 13.1896 37.5597 12.9501 37.4703 12.6755C37.3873 12.401 37.3394 12.0977 37.3267 11.7656C37.3203 11.5932 37.3203 11.4208 37.3267 11.2484C37.3394 10.9291 37.3873 10.6322 37.4703 10.3576C37.5533 10.0831 37.6779 9.8436 37.8439 9.63927C38.0163 9.42855 38.227 9.26572 38.476 9.15078C38.7251 9.03584 39.022 8.97838 39.3668 8.97838C39.7308 8.97838 40.0373 9.04862 40.2863 9.18909C40.5353 9.32319 40.7397 9.4924 40.8993 9.69673V9.31361C40.8993 9.24337 40.9216 9.1859 40.9663 9.1412C41.011 9.09651 41.0653 9.07416 41.1292 9.07416H41.905C41.9689 9.07416 42.0231 9.09651 42.0678 9.1412C42.1125 9.1859 42.1349 9.24337 42.1349 9.31361L42.1445 13.9303C42.1445 14.39 42.0583 14.7859 41.8858 15.118C41.7134 15.45 41.4516 15.7054 41.1004 15.8842C40.7556 16.0694 40.3118 16.162 39.7691 16.162ZM39.7212 13.0108C39.983 13.0108 40.1937 12.9533 40.3533 12.8384C40.513 12.7234 40.6311 12.5734 40.7077 12.3882C40.7844 12.203 40.8291 12.0146 40.8418 11.8231C40.8482 11.7401 40.8514 11.6347 40.8514 11.507C40.8514 11.3793 40.8482 11.2771 40.8418 11.2005C40.8291 11.0026 40.7844 10.8142 40.7077 10.6354C40.6311 10.4502 40.513 10.3002 40.3533 10.1852C40.1937 10.0639 39.983 10.0032 39.7212 10.0032C39.4594 10.0032 39.2487 10.0639 39.089 10.1852C38.9294 10.3002 38.8145 10.4534 38.7442 10.645C38.6804 10.8365 38.6421 11.0473 38.6293 11.2771C38.6165 11.4304 38.6165 11.5868 38.6293 11.7465C38.6421 11.97 38.6804 12.1807 38.7442 12.3786C38.8145 12.5702 38.9294 12.7234 39.089 12.8384C39.2487 12.9533 39.4594 13.0108 39.7212 13.0108ZM43.6502 14.0548C43.5864 14.0548 43.5321 14.0324 43.4874 13.9877C43.4427 13.943 43.4204 13.8888 43.4204 13.8249V9.30403C43.4204 9.24018 43.4427 9.1859 43.4874 9.1412C43.5321 9.09651 43.5864 9.07416 43.6502 9.07416H44.4452C44.5155 9.07416 44.5697 9.09651 44.6081 9.1412C44.6527 9.1859 44.6751 9.24018 44.6751 9.30403V13.8249C44.6751 13.8888 44.6527 13.943 44.6081 13.9877C44.5697 14.0324 44.5155 14.0548 44.4452 14.0548H43.6502ZM43.6119 8.25044C43.5417 8.25044 43.4842 8.23128 43.4395 8.19297C43.4012 8.14827 43.3821 8.0908 43.3821 8.02056V7.33094C43.3821 7.26709 43.4012 7.21281 43.4395 7.16811C43.4842 7.12341 43.5417 7.10107 43.6119 7.10107H44.4835C44.5538 7.10107 44.6112 7.12341 44.6559 7.16811C44.7006 7.21281 44.723 7.26709 44.723 7.33094V8.02056C44.723 8.0908 44.7006 8.14827 44.6559 8.19297C44.6112 8.23128 44.5538 8.25044 44.4835 8.25044H43.6119ZM46.2907 14.0548C46.2268 14.0548 46.1725 14.0324 46.1278 13.9877C46.0831 13.943 46.0608 13.8888 46.0608 13.8249V7.58955C46.0608 7.51931 46.0831 7.46184 46.1278 7.41714C46.1725 7.37245 46.2268 7.3501 46.2907 7.3501H48.8576C49.3557 7.3501 49.7899 7.42991 50.1602 7.58955C50.5306 7.7428 50.8179 7.97906 51.0222 8.29833C51.2266 8.61121 51.3287 9.00392 51.3287 9.47644C51.3287 9.95534 51.2266 10.3512 51.0222 10.6641C50.8179 10.9706 50.5306 11.2005 50.1602 11.3538C49.7899 11.507 49.3557 11.5836 48.8576 11.5836H47.4305V13.8249C47.4305 13.8888 47.4081 13.943 47.3634 13.9877C47.3251 14.0324 47.2708 14.0548 47.2006 14.0548H46.2907ZM47.4113 10.5205H48.8097C49.1801 10.5205 49.4642 10.4343 49.6622 10.2619C49.8601 10.0831 49.9591 9.82125 49.9591 9.47644C49.9591 9.15717 49.8665 8.90175 49.6813 8.71019C49.4961 8.51224 49.2056 8.41327 48.8097 8.41327H47.4113V10.5205ZM53.6029 14.1506C53.2709 14.1506 52.9708 14.0867 52.7026 13.959C52.4344 13.8249 52.2205 13.6493 52.0609 13.4322C51.9076 13.2087 51.831 12.9597 51.831 12.6851C51.831 12.2381 52.0098 11.8837 52.3674 11.6219C52.7313 11.3538 53.2102 11.175 53.8041 11.0856L55.1163 10.894V10.6929C55.1163 10.4247 55.0492 10.2172 54.9152 10.0703C54.7811 9.92342 54.5512 9.84998 54.2255 9.84998C53.9957 9.84998 53.8073 9.89788 53.6604 9.99366C53.5199 10.0831 53.4146 10.2044 53.3443 10.3576C53.2933 10.4406 53.2198 10.4822 53.124 10.4822H52.3674C52.2971 10.4822 52.2429 10.463 52.2045 10.4247C52.1726 10.3864 52.1567 10.3353 52.1567 10.2714C52.163 10.1693 52.2045 10.0447 52.2812 9.89788C52.3578 9.75101 52.4791 9.61053 52.6451 9.47644C52.8112 9.33596 53.0251 9.21783 53.2869 9.12205C53.5487 9.02627 53.8648 8.97838 54.2351 8.97838C54.6374 8.97838 54.9758 9.02946 55.2504 9.13163C55.5313 9.22741 55.7548 9.35831 55.9209 9.52433C56.0869 9.69035 56.2082 9.8851 56.2848 10.1086C56.3614 10.3321 56.3998 10.5684 56.3998 10.8174V13.8249C56.3998 13.8888 56.3774 13.943 56.3327 13.9877C56.288 14.0324 56.2337 14.0548 56.1699 14.0548H55.3941C55.3238 14.0548 55.2663 14.0324 55.2217 13.9877C55.1833 13.943 55.1642 13.8888 55.1642 13.8249V13.4514C55.0812 13.5727 54.9694 13.6876 54.8289 13.7962C54.6885 13.8983 54.5161 13.9845 54.3117 14.0548C54.1138 14.1186 53.8775 14.1506 53.6029 14.1506ZM53.9286 13.2406C54.1521 13.2406 54.3532 13.1928 54.532 13.097C54.7172 13.0012 54.8609 12.8543 54.963 12.6564C55.0716 12.452 55.1259 12.1966 55.1259 11.8901V11.689L54.1681 11.8422C53.7913 11.8997 53.5104 11.9923 53.3252 12.12C53.14 12.2477 53.0474 12.4042 53.0474 12.5893C53.0474 12.7298 53.0889 12.8511 53.1719 12.9533C53.2613 13.0491 53.3731 13.1225 53.5072 13.1736C53.6413 13.2183 53.7817 13.2406 53.9286 13.2406ZM59.0748 14.1506C58.7428 14.1506 58.4427 14.0867 58.1745 13.959C57.9063 13.8249 57.6924 13.6493 57.5327 13.4322C57.3795 13.2087 57.3029 12.9597 57.3029 12.6851C57.3029 12.2381 57.4817 11.8837 57.8392 11.6219C58.2032 11.3538 58.6821 11.175 59.276 11.0856L60.5882 10.894V10.6929C60.5882 10.4247 60.5211 10.2172 60.387 10.0703C60.2529 9.92342 60.0231 9.84998 59.6974 9.84998C59.4675 9.84998 59.2792 9.89788 59.1323 9.99366C58.9918 10.0831 58.8865 10.2044 58.8162 10.3576C58.7651 10.4406 58.6917 10.4822 58.5959 10.4822H57.8392C57.769 10.4822 57.7147 10.463 57.6764 10.4247C57.6445 10.3864 57.6285 10.3353 57.6285 10.2714C57.6349 10.1693 57.6764 10.0447 57.753 9.89788C57.8297 9.75101 57.951 9.61053 58.117 9.47644C58.283 9.33596 58.4969 9.21783 58.7587 9.12205C59.0205 9.02627 59.3366 8.97838 59.707 8.97838C60.1093 8.97838 60.4477 9.02946 60.7223 9.13163C61.0032 9.22741 61.2267 9.35831 61.3927 9.52433C61.5587 9.69035 61.6801 9.8851 61.7567 10.1086C61.8333 10.3321 61.8716 10.5684 61.8716 10.8174V13.8249C61.8716 13.8888 61.8493 13.943 61.8046 13.9877C61.7599 14.0324 61.7056 14.0548 61.6418 14.0548H60.8659C60.7957 14.0548 60.7382 14.0324 60.6935 13.9877C60.6552 13.943 60.6361 13.8888 60.6361 13.8249V13.4514C60.553 13.5727 60.4413 13.6876 60.3008 13.7962C60.1603 13.8983 59.9879 13.9845 59.7836 14.0548C59.5857 14.1186 59.3494 14.1506 59.0748 14.1506ZM59.4005 13.2406C59.624 13.2406 59.8251 13.1928 60.0039 13.097C60.1891 13.0012 60.3327 12.8543 60.4349 12.6564C60.5435 12.452 60.5977 12.1966 60.5977 11.8901V11.689L59.6399 11.8422C59.2632 11.8997 58.9822 11.9923 58.7971 12.12C58.6119 12.2477 58.5193 12.4042 58.5193 12.5893C58.5193 12.7298 58.5608 12.8511 58.6438 12.9533C58.7332 13.0491 58.8449 13.1225 58.979 13.1736C59.1131 13.2183 59.2536 13.2406 59.4005 13.2406ZM62.4825 15.8746C62.4186 15.8746 62.3643 15.8523 62.3196 15.8076C62.2749 15.7629 62.2526 15.7086 62.2526 15.6448V15.0892C62.2526 15.0254 62.2749 14.9711 62.3196 14.9264C62.3643 14.8817 62.4186 14.8593 62.4825 14.8593H62.7315C62.9294 14.8593 63.0763 14.8242 63.1721 14.754C63.2679 14.6838 63.3317 14.5848 63.3636 14.4571C63.3956 14.3357 63.4115 14.1985 63.4115 14.0452V9.30403C63.4115 9.24018 63.4339 9.1859 63.4786 9.1412C63.5233 9.09651 63.5776 9.07416 63.6414 9.07416H64.4747C64.5386 9.07416 64.5928 9.09651 64.6375 9.1412C64.6822 9.1859 64.7046 9.24018 64.7046 9.30403V14.0644C64.7046 14.4411 64.6343 14.7636 64.4939 15.0318C64.3598 15.2999 64.1554 15.5075 63.8809 15.6543C63.6127 15.8012 63.2679 15.8746 62.8464 15.8746H62.4825ZM63.6031 8.25044C63.5329 8.25044 63.4754 8.23128 63.4307 8.19297C63.386 8.14827 63.3636 8.0908 63.3636 8.02056V7.33094C63.3636 7.26709 63.386 7.21281 63.4307 7.16811C63.4754 7.12341 63.5329 7.10107 63.6031 7.10107H64.5034C64.5737 7.10107 64.6312 7.12341 64.6758 7.16811C64.7205 7.21281 64.7429 7.26709 64.7429 7.33094V8.02056C64.7429 8.0908 64.7205 8.14827 64.6758 8.19297C64.6312 8.23128 64.5737 8.25044 64.5034 8.25044H63.6031ZM66.2112 14.0548C66.1473 14.0548 66.0931 14.0324 66.0484 13.9877C66.0037 13.943 65.9813 13.8888 65.9813 13.8249V9.30403C65.9813 9.24018 66.0037 9.1859 66.0484 9.1412C66.0931 9.09651 66.1473 9.07416 66.2112 9.07416H67.0062C67.0764 9.07416 67.1307 9.09651 67.169 9.1412C67.2137 9.1859 67.236 9.24018 67.236 9.30403V13.8249C67.236 13.8888 67.2137 13.943 67.169 13.9877C67.1307 14.0324 67.0764 14.0548 67.0062 14.0548H66.2112ZM66.1729 8.25044C66.1026 8.25044 66.0452 8.23128 66.0005 8.19297C65.9622 8.14827 65.943 8.0908 65.943 8.02056V7.33094C65.943 7.26709 65.9622 7.21281 66.0005 7.16811C66.0452 7.12341 66.1026 7.10107 66.1729 7.10107H67.0445C67.1147 7.10107 67.1722 7.12341 67.2169 7.16811C67.2616 7.21281 67.2839 7.26709 67.2839 7.33094V8.02056C67.2839 8.0908 67.2616 8.14827 67.2169 8.19297C67.1722 8.23128 67.1147 8.25044 67.0445 8.25044H66.1729Z" fill="#353535"/>
</g>
<defs>
<clipPath id="clip0_61_2">
<rect width="78" height="22" fill="white"/>
</clipPath>
</defs>
</svg>
